<svg width="2181" height="2366" viewBox="0 0 2181 2366" fill="none" xmlns="http://www.w3.org/2000/svg">
<path d="M1092.2 2364.35L1088.93 2364.09C1102.3 2169.75 1236.1 2073.27 1365.5 1979.98C1494.62 1886.89 1628.14 1790.62 1640.6 1596.87L1643.87 1597.11C1631.29 1792.61 1497.09 1889.36 1367.31 1982.93C1238.56 2075.76 1105.44 2171.74 1092.19 2364.35H1092.2Z" fill="url(#paint0_radial_1701_19622)"/>
<path d="M1333.51 2336.46C1322.96 2169.47 1387.35 2067.26 1487.29 1965.16C1592.25 1857.93 1664.68 1768.77 1640.63 1597.27L1643.87 1596.74C1668.17 1769.95 1595.23 1859.77 1489.53 1967.76C1390.28 2069.16 1326.32 2170.63 1336.78 2336.23L1333.51 2336.48L1333.51 2336.46Z" fill="url(#paint1_radial_1701_19622)"/>
<path d="M1572.04 2255.75C1536.2 2119.54 1545.2 2023.02 1603.09 1922.6C1669.35 1807.68 1690.5 1733.49 1640.72 1597.65L1643.77 1596.34C1694.07 1733.6 1672.74 1808.5 1605.87 1924.48C1548.52 2023.94 1539.63 2119.64 1575.19 2254.76L1572.04 2255.74V2255.75Z" fill="url(#paint2_radial_1701_19622)"/>
<path d="M1786.72 2121.55C1740.99 2041.44 1693.71 1958.59 1707.21 1853.8C1721.54 1742.61 1703.23 1692.41 1640.91 1598.03L1643.58 1595.96C1706.46 1691.21 1724.94 1741.9 1710.46 1854.3C1697.12 1957.81 1744.08 2040.1 1789.51 2119.68L1786.72 2121.55H1786.72Z" fill="url(#paint3_radial_1701_19622)"/>
<path d="M1959.45 1934.99C1903.41 1883.4 1853.54 1826.31 1805.31 1771.1C1754.14 1712.53 1701.22 1651.96 1641.2 1598.37L1643.29 1595.62C1703.46 1649.36 1756.44 1710 1807.68 1768.65C1855.85 1823.8 1905.67 1880.81 1961.57 1932.28L1959.45 1934.99V1934.99Z" fill="url(#paint4_radial_1701_19622)"/>
<path d="M2081.56 1705.35C2074.23 1702.12 2066.91 1698.83 2059.59 1695.55C1995.82 1666.9 1929.88 1637.27 1859.17 1649.63C1777.25 1663.93 1726.76 1639.63 1650.34 1602.84L1641.59 1598.63L1642.91 1595.38L1651.67 1599.6C1727.56 1636.13 1777.69 1660.27 1858.65 1646.13C1930.28 1633.62 1996.66 1663.44 2060.85 1692.27C2068.16 1695.56 2075.48 1698.85 2082.8 1702.07L2081.57 1705.36L2081.56 1705.35Z" fill="url(#paint5_radial_1701_19622)"/>
<path d="M1732.47 1608.84C1705.62 1608.84 1676.01 1604.97 1641.97 1598.75L1642.51 1595.25C1758.43 1616.44 1819.39 1610.81 1896.82 1521C1968.01 1438.43 2039.47 1431 2154.56 1446.1L2154.17 1449.63C2040.18 1434.66 1969.45 1441.97 1899.22 1523.43C1844.36 1587.06 1796.21 1608.83 1732.48 1608.83L1732.47 1608.84Z" fill="url(#paint6_radial_1701_19622)"/>
<path d="M1642.35 1598.77L1642.14 1595.22C1777.58 1585.76 1847.66 1532.02 1909.94 1389.89C1973.74 1244.32 2041.7 1191.76 2179.26 1181.62L2179.47 1185.16C2043.35 1195.2 1976.08 1247.25 1912.9 1391.42C1850.01 1534.94 1779.21 1589.2 1642.35 1598.77Z" fill="url(#paint7_radial_1701_19622)"/>
<path d="M1642.73 1598.69L1641.76 1595.3C1796.1 1543.42 1844.69 1423.15 1896.49 1258.9C1945.75 1102.69 2008.35 985.405 2153.74 920.706L2154.98 923.989C2010.73 988.18 1948.56 1104.75 1899.59 1260.05C1847.47 1425.3 1798.54 1546.32 1642.73 1598.69Z" fill="url(#paint8_radial_1701_19622)"/>
<path d="M1643.07 1598.53L1641.41 1595.46C1785.14 1504.58 1815.77 1347.29 1848.19 1180.77C1851.15 1165.54 1854.12 1150.29 1857.19 1135.07C1889.99 972.28 1939.81 804.185 2081.13 677.647L2083.21 680.384C1942.66 806.238 1893.05 973.657 1860.39 1135.82C1857.32 1151.03 1854.35 1166.28 1851.39 1181.5C1820.25 1341.45 1788.05 1506.85 1643.07 1598.53Z" fill="url(#paint9_radial_1701_19622)"/>
<path d="M1643.37 1598.29L1641.12 1595.7C1763.65 1471.31 1775.55 1288.1 1787.06 1110.94C1788.94 1082.2 1790.86 1052.48 1793.25 1024.06C1808.25 845.858 1839.69 639.504 1959.18 460.123L1961.83 462.206C1842.8 640.888 1811.47 846.657 1796.51 1024.38C1794.12 1052.76 1792.19 1082.47 1790.32 1111.19C1778.76 1289.04 1766.81 1472.95 1643.35 1598.3L1643.37 1598.29Z" fill="url(#paint10_radial_1701_19622)"/>
<path d="M1643.6 1598L1640.89 1596C1740.35 1438.03 1726.13 1226.43 1713.58 1039.75C1711.04 1001.88 1708.64 966.106 1707.08 930.831C1697.66 716.305 1700.77 488.186 1786.61 273.475L1789.62 274.89C1704.05 488.932 1700.96 716.567 1710.36 930.662C1711.9 965.899 1714.31 1001.64 1716.85 1039.49C1729.44 1226.75 1743.71 1439 1643.6 1597.99V1598Z" fill="url(#paint11_radial_1701_19622)"/>
<path d="M1643.73 1597.74L1640.76 1596.26C1716.51 1416.19 1669.19 1186.79 1627.44 984.397C1618.43 940.75 1609.93 899.516 1602.89 859.997C1556.4 598.632 1521.98 363.078 1572.02 127.07L1575.21 127.862C1525.31 363.201 1559.68 598.363 1606.1 859.32C1613.12 898.793 1621.62 939.996 1630.63 983.621C1672.49 1186.56 1719.94 1416.57 1643.73 1597.73V1597.74Z" fill="url(#paint12_radial_1701_19622)"/>
<path d="M1643.83 1597.41L1640.65 1596.59C1668.82 1467.55 1631.95 1320.16 1605.03 1212.55C1575.99 1096.43 1539.22 980.699 1503.66 868.769C1498.05 851.116 1492.44 833.463 1486.86 815.803C1478.47 789.262 1469.59 761.768 1461 735.165C1390.39 516.434 1310.36 268.516 1333.52 33.6924L1336.77 34.0691C1313.69 268.093 1393.6 515.611 1464.09 733.989C1472.69 760.591 1481.56 788.101 1489.95 814.65C1495.53 832.303 1501.14 849.955 1506.75 867.608C1542.33 979.592 1579.12 1095.39 1608.2 1211.62C1635.21 1319.6 1672.19 1467.49 1643.83 1597.41V1597.41Z" fill="url(#paint13_radial_1701_19622)"/>
<path d="M1643.88 1597.01L1640.61 1596.98C1641.35 1460.78 1586.71 1320.04 1542.8 1206.96C1492.76 1078.07 1434.29 950.714 1377.74 827.543L1365.56 801.025C1346.37 759.192 1325.89 716.805 1304.22 671.935C1204.33 465.174 1091.12 230.827 1088.93 2.5692L1092.21 2.53076C1094.39 229.935 1207.4 463.882 1307.11 670.282C1328.8 715.167 1349.28 757.57 1368.49 799.442L1380.66 825.959C1437.24 949.176 1495.74 1076.59 1545.82 1205.58C1589.85 1318.96 1644.63 1460.07 1643.88 1597.01Z" fill="url(#paint14_radial_1701_19622)"/>
<path d="M1640.65 1597.4C1611.7 1463.51 1544.37 1340.12 1479.25 1220.8L1474.98 1212.98C1411.47 1096.56 1342.71 980.938 1276.21 869.123C1265.72 851.478 1255.23 833.833 1244.75 816.18C1223.3 780.051 1200.89 742.962 1179.22 707.095C1050.65 494.391 917.722 274.437 849.02 34.4L852.146 33.3467C920.706 272.907 1053.52 492.646 1181.95 705.149C1203.63 741.024 1226.06 778.114 1247.5 814.258C1257.98 831.911 1268.47 849.548 1278.96 867.193C1345.47 979.031 1414.25 1094.68 1477.8 1211.16L1482.06 1218.98C1547.31 1338.54 1614.77 1462.16 1643.83 1596.58L1640.64 1597.4H1640.65Z" fill="url(#paint15_radial_1701_19622)"/>
<path d="M1640.77 1597.77C1546.9 1389.06 1399.15 1202.33 1256.27 1021.76C1214.42 968.867 1171.15 914.178 1130.81 860.781C1116.67 842.059 1102.48 823.322 1088.28 804.57C926.264 590.613 758.738 369.367 627.381 128.369L630.202 126.562C761.432 367.33 928.88 588.46 1090.82 802.317C1105.02 821.07 1119.21 839.807 1133.35 858.528C1173.67 911.894 1216.92 966.568 1258.76 1019.44C1401.78 1200.19 1549.67 1387.09 1643.71 1596.22L1640.77 1597.78V1597.77Z" fill="url(#paint16_radial_1701_19622)"/>
<path d="M1640.96 1598.11C1505.12 1414.55 1341.26 1249.12 1182.79 1089.14C1131.89 1037.76 1079.26 984.621 1028.7 932.008L1023.73 926.833C823.662 718.643 616.783 503.363 429.18 275.367L431.625 272.999C619.137 500.888 825.973 716.121 1026 924.265L1030.97 929.44C1081.51 982.03 1134.13 1035.16 1185.02 1086.53C1343.58 1246.6 1507.54 1412.12 1643.52 1595.88L1640.97 1598.1L1640.96 1598.11Z" fill="url(#paint17_radial_1701_19622)"/>
<path d="M1641.22 1598.38C1390.13 1381.55 1127.85 1170.61 874.215 966.629C670.767 803.009 460.386 633.815 257.002 462.56L259.008 459.754C462.364 630.985 672.724 800.164 876.164 963.777C1129.83 1167.78 1392.13 1378.73 1643.27 1595.6L1641.22 1598.37V1598.38Z" fill="url(#paint18_radial_1701_19622)"/>
<path d="M1641.53 1598.6C1356.45 1449.09 1078.18 1272.09 809.072 1100.91C585.207 958.51 353.721 811.267 119.484 680.6L120.98 677.44C355.295 808.16 586.823 955.427 810.731 1097.85C1079.78 1268.99 1358 1445.96 1642.96 1595.4L1641.54 1598.6H1641.53Z" fill="url(#paint19_radial_1701_19622)"/>
<path d="M1641.88 1598.73C1425.4 1544.31 1214.29 1442.48 1010.14 1344.01C952.877 1316.39 893.668 1287.83 835.876 1261.09C793.603 1241.54 750.521 1221.33 708.858 1201.78C489.7 1098.94 263.085 992.609 30.9395 924.065L31.7973 920.636C264.169 989.249 490.898 1095.64 710.155 1198.52C751.819 1218.06 794.893 1238.28 837.159 1257.83C894.972 1284.57 954.196 1313.13 1011.46 1340.75C1215.48 1439.16 1426.43 1540.92 1642.61 1595.26L1641.87 1598.72L1641.88 1598.73Z" fill="url(#paint20_radial_1701_19622)"/>
<path d="M1642.24 1598.77C1421 1597.72 1195.97 1520.14 978.349 1445.1C924.378 1426.5 873.4 1408.92 822.165 1392.36C769.627 1375.38 717.23 1357.22 661.757 1337.99C445.052 1262.86 220.967 1185.18 1.78125 1185.17V1181.62C221.478 1181.63 445.81 1259.39 662.756 1334.6C718.215 1353.82 770.591 1371.99 823.108 1388.96C874.371 1405.53 925.364 1423.11 979.349 1441.73C1196.73 1516.68 1421.53 1594.18 1642.27 1595.23L1642.25 1598.78L1642.24 1598.77Z" fill="url(#paint21_radial_1701_19622)"/>
<path d="M1492.12 1615C1412.55 1615 1331.86 1604.1 1252.8 1593.42L1246.3 1592.55C1127.73 1576.55 1007.9 1554.93 892.01 1534.01C873.429 1530.66 854.848 1527.31 836.267 1523.98C799.197 1517.34 760.88 1510.09 723.824 1503.1C494.585 1459.79 257.542 1415 31.5995 1449.63L31.1387 1446.12C257.584 1411.41 494.89 1456.24 724.384 1499.6C761.432 1506.6 799.736 1513.84 836.799 1520.48C855.379 1523.81 873.967 1527.16 892.548 1530.52C1008.41 1551.42 1128.21 1573.03 1246.71 1589.03L1253.2 1589.9C1382.54 1607.37 1516.28 1625.44 1641.89 1595.26L1642.6 1598.73C1593.4 1610.55 1542.99 1615 1492.13 1615H1492.12Z" fill="url(#paint22_radial_1701_19622)"/>
<path d="M120.697 1705.41L119.762 1702C350.546 1627.18 600.01 1636.09 841.265 1644.71L877.86 1646.01C905.359 1646.96 932.865 1648.01 960.365 1649.07C1060.51 1652.91 1164.04 1656.88 1265.92 1655.79L1270.69 1655.74C1391.75 1654.45 1528.97 1652.99 1641.54 1595.39L1642.94 1598.61C1529.72 1656.53 1392.12 1658 1270.73 1659.29L1265.95 1659.34C1164.03 1660.44 1060.44 1656.47 960.251 1652.63C932.745 1651.57 905.245 1650.52 877.753 1649.56L841.159 1648.27C600.173 1639.66 350.978 1630.77 120.705 1705.41L120.697 1705.41Z" fill="url(#paint23_radial_1701_19622)"/>
<path d="M258.704 1935.24L257.301 1932.03C478.933 1817.85 717.798 1783.79 943.464 1758.69C974.543 1755.23 1006.17 1751.92 1036.75 1748.72C1119.85 1740.03 1205.78 1731.04 1289.81 1718.13L1291.67 1717.85C1411.31 1699.46 1546.92 1678.64 1641.22 1595.62L1643.28 1598.38C1548.28 1682.01 1412.2 1702.92 1292.14 1721.37L1290.28 1721.65C1206.18 1734.58 1120.21 1743.57 1037.08 1752.27C1006.5 1755.47 974.876 1758.77 943.811 1762.23C718.429 1787.31 479.875 1821.32 258.719 1935.26L258.704 1935.24Z" fill="url(#paint24_radial_1701_19622)"/>
<path d="M431.384 2122.03L429.42 2119.19C597.967 1982 791.199 1913.25 1029.48 1852.23C1064.81 1843.18 1101.14 1834.99 1139.59 1826.33C1317.05 1786.32 1518.17 1740.98 1641.04 1595.79L1643.45 1598.19C1519.87 1744.23 1318.19 1789.69 1140.26 1829.8C1101.83 1838.47 1065.53 1846.65 1030.24 1855.69C792.348 1916.61 599.477 1985.22 431.384 2122.03Z" fill="url(#paint25_radial_1701_19622)"/>
<path d="M630.054 2256.39L627.537 2254.12C761.517 2078.99 949.971 1993.96 1131.51 1921.88C1156.35 1912.01 1181.45 1902.59 1208.01 1892.61C1369.22 1832.04 1551.93 1763.39 1640.83 1596.11L1643.67 1597.89C1554.16 1766.32 1370.83 1835.2 1209.09 1895.97C1182.54 1905.95 1157.46 1915.37 1132.65 1925.22C951.524 1997.14 763.531 2081.95 630.068 2256.4L630.054 2256.39Z" fill="url(#paint26_radial_1701_19622)"/>
<path d="M852.089 2337.04L849.076 2335.64C922.081 2150.68 1071.76 2058.3 1245.41 1964.87C1256.6 1958.85 1267.89 1952.85 1279.21 1946.82C1430.95 1866.09 1587.86 1782.6 1640.67 1596.47L1643.8 1597.51C1590.57 1785.11 1433.02 1868.94 1280.66 1950.01C1269.34 1956.03 1258.06 1962.04 1246.87 1968.06C1073.81 2061.16 924.655 2153.2 852.089 2337.04Z" fill="url(#paint27_radial_1701_19622)"/>
<path d="M1090.57 2366C947.121 2366 806.406 2334.15 672.348 2271.34C543.111 2210.78 426.265 2124.55 325.066 2015.03C223.739 1905.37 143.957 1778.71 87.9231 1638.56C29.6706 1492.87 0.136719 1339.73 0.136719 1183.39C0.136719 891.12 121.611 591.766 333.432 362.094C545.195 132.475 821.159 0.777832 1090.54 0.777832H1090.57C1233.43 0.777832 1381.4 34.1077 1518.5 97.1539C1653.91 159.423 1779.49 250.956 1881.68 361.855C1979.22 467.719 2054.8 594.903 2106.34 739.879C2155.88 879.28 2181.01 1028.5 2181 1183.39C2181 1340.3 2155.59 1498.74 2107.53 1641.56C2055.42 1796.4 1979.44 1928.67 1881.68 2034.72C1782.86 2141.9 1660 2225.61 1516.52 2283.51C1382.81 2337.47 1235.53 2365.99 1090.57 2365.99L1090.57 2366ZM1090.57 4.32994C822.038 4.32226 546.918 135.635 335.75 364.6C124.539 593.611 3.40487 892.05 3.41196 1183.39C3.41196 1491.99 118.471 1786.44 327.377 2012.52C535.901 2238.19 806.945 2362.46 1090.57 2362.46C1393.86 2362.45 1688.74 2238.99 1879.37 2032.22C2068.98 1826.55 2177.73 1517.17 2177.73 1183.39C2177.73 864.056 2071.77 573.191 1879.37 364.377C1671.64 138.933 1376.77 4.33763 1090.57 4.32994Z" fill="url(#paint28_radial_1701_19622)"/>
<path d="M1109.02 2249.31C985.786 2249.31 863.318 2220.03 744.956 2162.28C632.045 2107.19 528.684 2029.25 437.736 1930.63C248.573 1725.48 140.22 1458.42 140.461 1197.91C140.575 1074.43 169.045 947.024 225.079 819.232C277.816 698.96 354.366 582.286 446.462 481.828C538.878 381.015 646.323 297.249 757.171 239.577C875.625 177.945 994.307 146.63 1109.92 146.507H1110.83C1236.45 146.507 1360.52 175.139 1479.59 231.619C1594.68 286.216 1699.01 363.747 1789.67 462.076C1879.88 559.92 1950.98 672.342 2000.98 796.22C2053.13 925.434 2079.51 1060.59 2079.38 1197.92C2079.23 1340.72 2059.53 1482.12 2022.38 1606.82C1979.18 1751.85 1913.83 1872.68 1828.16 1965.96C1740.95 2060.93 1628.4 2133.99 1493.63 2183.13C1375.28 2226.28 1242.6 2249.17 1109.92 2249.32H1109.02V2249.31ZM1110.79 150.044H1109.93C884.288 150.29 643.317 272.13 448.788 484.319C255.151 695.546 143.971 955.635 143.744 1197.9C143.503 1457.47 251.501 1723.62 440.054 1928.11C626.232 2130.01 870.032 2245.75 1109.06 2245.75H1109.92C1400.44 2245.41 1661.38 2142.52 1825.84 1963.44C1984.58 1790.59 2075.8 1511.56 2076.1 1197.89C2076.36 931.162 1971.12 663.877 1787.35 464.567C1603.03 264.657 1356.46 150.044 1110.79 150.044Z" fill="url(#paint29_radial_1701_19622)"/>
<path d="M1162.21 2156.29C1161.75 2156.29 1161.31 2156.29 1160.85 2156.29C950.162 2156.01 734.527 2051.67 569.241 1870.03C405.734 1690.33 312.106 1459.27 312.376 1236.09C312.907 790.908 749.039 317.908 1160.85 315.886C1161.94 315.886 1163.05 315.878 1164.14 315.878C1376.28 315.878 1590.71 416.298 1752.97 591.774C1916.24 768.334 2009.68 1003.18 2009.33 1236.09C2009.15 1361.37 1992.21 1485.05 1960.34 1593.77C1922.79 1721.89 1865.68 1828 1790.61 1909.15C1713.87 1992.1 1614.94 2055.93 1496.57 2098.86C1392.96 2136.44 1277.37 2156.29 1162.21 2156.29ZM1164.14 319.422C1163.05 319.422 1161.97 319.422 1160.86 319.43C750.634 321.444 316.183 792.622 315.651 1236.08C315.381 1458.34 408.662 1688.49 571.573 1867.52C736.243 2048.49 951.026 2152.44 1160.85 2152.73C1161.3 2152.73 1161.78 2152.73 1162.23 2152.73C1411.74 2152.73 1645.68 2060.79 1788.3 1906.62C1926.28 1757.48 2005.64 1513.07 2006.06 1236.07C2006.41 1004.1 1913.32 770.164 1750.66 594.265C1589.02 419.466 1375.4 319.407 1164.14 319.407V319.422Z" fill="url(#paint30_radial_1701_19622)"/>
<path d="M1229.88 2080.19C1139.01 2080.19 1048.79 2058.85 961.626 2016.72C877.611 1976.11 800.516 1918.33 732.494 1844.99C588.88 1690.15 506.623 1488.29 506.829 1291.17C506.928 1195.86 528.444 1098.15 570.781 1000.77C610.842 908.642 669.003 820.086 738.981 744.684C882.134 590.436 1061.49 502.164 1231.49 502.164C1232.44 502.164 1233.39 502.164 1234.34 502.172C1417.74 503.233 1602.67 589.537 1741.69 738.933C1810.14 812.489 1864.12 896.886 1902.12 989.787C1941.85 1086.88 1961.94 1188.28 1961.82 1291.17C1961.6 1502.51 1886.2 1700.44 1749.52 1848.49C1612.99 1996.39 1430.02 2078.66 1234.34 2080.17C1232.85 2080.19 1231.36 2080.19 1229.88 2080.19L1229.88 2080.19ZM1234.32 2076.62C1639.98 2073.5 1958.1 1728.49 1958.56 1291.17C1959 874.997 1620.57 507.969 1234.33 505.724C1233.39 505.724 1232.44 505.716 1231.5 505.716C1062.34 505.716 883.843 593.604 741.292 747.206C596.728 902.984 510.302 1106.33 510.104 1291.18C509.898 1487.36 591.801 1688.3 734.798 1842.47C874.095 1992.65 1056.13 2077.84 1234.31 2076.63L1234.32 2076.62Z" fill="url(#paint31_radial_1701_19622)"/>
<path d="M1321.22 2014.17C1241.37 2014.17 1162.99 1996.19 1088.23 1960.71C1016.46 1926.65 951.489 1878.21 895.115 1816.76C780.496 1691.81 714.764 1524.01 714.785 1356.37C714.799 1192.2 781.729 1025.32 898.411 898.501C1015.3 771.463 1169.44 698.591 1321.31 698.576H1321.36C1480.16 698.576 1631.51 767.742 1747.56 893.35C1863.83 1019.19 1927.85 1183.62 1927.83 1356.37C1927.81 1532.65 1864.94 1697.96 1750.81 1821.86C1636.59 1945.84 1484.06 2014.14 1321.31 2014.16H1321.22L1321.22 2014.17ZM1321.36 702.135H1321.3C1005.62 702.174 718.089 1014.01 718.053 1356.38C718.039 1523.08 783.416 1689.98 897.433 1814.26C1011.91 1939.05 1166.38 2010.62 1321.22 2010.62H1321.3C1653.89 2010.57 1924.5 1717.08 1924.55 1356.38C1924.57 1184.58 1860.89 1021.04 1745.25 895.872C1629.81 770.94 1479.27 702.135 1321.36 702.135Z" fill="url(#paint32_radial_1701_19622)"/>
<path d="M1412.64 1951.52C1288.34 1951.52 1164.32 1894.51 1072.34 1795.09C978.717 1693.9 927.171 1562.44 927.186 1424.92C927.2 1287.34 978.441 1155.98 1071.47 1055.01C1164.56 953.982 1285.75 898.34 1412.74 898.324H1412.79C1539.69 898.324 1660.99 954.458 1754.35 1056.39C1845.84 1156.3 1898.31 1290.62 1898.29 1424.92C1898.27 1559.23 1845.48 1693.64 1753.48 1793.69C1661.26 1893.97 1537.07 1951.49 1412.74 1951.51H1412.66L1412.64 1951.52ZM1412.78 901.884H1412.73C1151.34 901.915 930.489 1141.44 930.461 1424.92C930.447 1561.49 981.652 1692.05 1074.65 1792.56C1166.02 1891.32 1289.21 1947.96 1412.64 1947.96H1412.73C1669.59 1947.9 1894.96 1703.49 1895 1424.92C1895.02 1291.56 1842.91 1158.14 1752.01 1058.9C1659.27 957.649 1538.79 901.884 1412.77 901.884H1412.78Z" fill="url(#paint33_radial_1701_19622)"/>
<path d="M1495.53 1885.46C1405.8 1885.46 1315.32 1843.52 1246.65 1769.98C1175.64 1693.91 1134.95 1591.88 1135.02 1490.04C1135.08 1385.84 1175.25 1283.07 1245.23 1208.1C1314.59 1133.78 1404.84 1093.51 1499.61 1094.66C1591.63 1095.8 1684.48 1139.91 1754.34 1215.69C1824.21 1291.47 1864.23 1391.48 1864.16 1490.05C1864.09 1587.1 1823.12 1686.78 1751.75 1763.52C1680.89 1839.73 1588.99 1884.17 1499.61 1885.43C1498.26 1885.45 1496.89 1885.47 1495.53 1885.47V1885.46ZM1495.6 1098.18C1403.25 1098.18 1315.29 1138.01 1247.52 1210.62C1178.17 1284.93 1138.35 1386.78 1138.28 1490.04C1138.22 1590.94 1178.56 1692.04 1248.95 1767.45C1317 1840.34 1406.66 1881.91 1495.52 1881.91C1496.87 1881.91 1498.21 1881.9 1499.56 1881.87C1685.14 1879.24 1860.73 1688.82 1860.88 1490.04C1861.03 1283.68 1692.2 1100.58 1499.57 1098.2C1498.24 1098.19 1496.92 1098.18 1495.6 1098.18Z" fill="url(#paint34_radial_1701_19622)"/>
<path d="M1572.35 1809.13C1511.67 1809.13 1449.92 1779.91 1402.86 1728.92C1355.97 1678.11 1329.13 1611.05 1329.22 1544.94C1329.31 1475.58 1354.87 1409.63 1401.21 1359.24C1447.65 1308.72 1508.6 1280.85 1572.81 1280.76H1573.06C1633.03 1280.76 1694.36 1310.02 1741.38 1361.04C1789.18 1412.93 1816.53 1479.96 1816.4 1544.95C1816.28 1607.47 1788.7 1673.41 1740.72 1725.85C1692.43 1778.63 1631.24 1808.98 1572.81 1809.13H1572.35ZM1572.81 1805.57C1693.83 1805.27 1812.87 1676.18 1813.13 1544.94C1813.25 1480.89 1786.26 1414.78 1739.06 1363.55C1692.66 1313.18 1632.16 1284.3 1573.06 1284.3H1572.81C1442.73 1284.48 1332.67 1403.84 1332.49 1544.94C1332.4 1610.12 1358.89 1676.26 1405.17 1726.4C1451.62 1776.73 1512.52 1805.57 1572.34 1805.57H1572.8H1572.81Z" fill="url(#paint35_radial_1701_19622)"/>
<path d="M1623.03 1715.83C1592.39 1715.83 1561.38 1701.29 1537.88 1675.9C1514.3 1650.42 1500.77 1616.51 1500.76 1582.85C1500.74 1547.78 1513.64 1514.48 1537.07 1489.09C1560.41 1463.8 1591.01 1449.88 1623.25 1449.88H1623.37C1654.03 1449.91 1685.15 1464.65 1708.73 1490.32C1732.49 1516.18 1746.07 1549.91 1745.99 1582.87C1745.82 1649.75 1685.09 1715.62 1623.38 1715.84H1623.03V1715.83ZM1623.25 1453.42C1591.88 1453.42 1562.1 1466.98 1539.39 1491.6C1516.58 1516.31 1504.03 1548.72 1504.04 1582.84C1504.05 1615.57 1517.23 1648.56 1540.2 1673.38C1563.09 1698.11 1593.26 1712.27 1623.03 1712.27H1623.38C1683.45 1712.05 1742.57 1647.94 1742.73 1582.84C1742.81 1550.83 1729.58 1518.01 1706.42 1492.81C1683.46 1467.81 1653.19 1453.45 1623.39 1453.41H1623.27L1623.25 1453.42Z" fill="url(#paint36_radial_1701_19622)"/>
<rect x="1234" y="1228" width="661" height="631" rx="315.5" fill="url(#paint37_radial_1701_19622)"/>
<defs>
<radialGradient id="paint0_radial_1701_19622" cx="0" cy="0" r="1" gradientUnits="userSpaceOnUse" gradientTransform="translate(1575.43 1554.53) scale(819.286 888.543)">
<stop offset="0.04" stop-color="#131214"/>
<stop offset="0.17" stop-color="#131214"/>
<stop offset="0.37" stop-color="#1B1B13" stop-opacity="0.0705882"/>
<stop offset="0.61" stop-color="#3C3C3C"/>
<stop offset="0.88" stop-color="#696969"/>
<stop offset="1" stop-color="#808080"/>
</radialGradient>
<radialGradient id="paint1_radial_1701_19622" cx="0" cy="0" r="1" gradientUnits="userSpaceOnUse" gradientTransform="translate(1575.44 1554.53) scale(819.279 888.535)">
<stop offset="0.04"/>
<stop offset="0.17" stop-color="#070707"/>
<stop offset="0.37" stop-color="#1B1B1B"/>
<stop offset="0.61" stop-color="#3C3C3C"/>
<stop offset="0.88" stop-color="#696969"/>
<stop offset="1" stop-color="#808080"/>
</radialGradient>
<radialGradient id="paint2_radial_1701_19622" cx="0" cy="0" r="1" gradientUnits="userSpaceOnUse" gradientTransform="translate(1575.44 1554.53) scale(819.278 888.535)">
<stop offset="0.04"/>
<stop offset="0.17" stop-color="#070707"/>
<stop offset="0.37" stop-color="#1B1B1B"/>
<stop offset="0.61" stop-color="#3C3C3C"/>
<stop offset="0.88" stop-color="#696969"/>
<stop offset="1" stop-color="#808080"/>
</radialGradient>
<radialGradient id="paint3_radial_1701_19622" cx="0" cy="0" r="1" gradientUnits="userSpaceOnUse" gradientTransform="translate(1575.44 1554.53) scale(819.286 888.543)">
<stop offset="0.04"/>
<stop offset="0.17" stop-color="#070707"/>
<stop offset="0.37" stop-color="#1B1B1B"/>
<stop offset="0.61" stop-color="#3C3C3C"/>
<stop offset="0.88" stop-color="#696969"/>
<stop offset="1" stop-color="#808080"/>
</radialGradient>
<radialGradient id="paint4_radial_1701_19622" cx="0" cy="0" r="1" gradientUnits="userSpaceOnUse" gradientTransform="translate(1575.44 1554.53) scale(819.285 888.543)">
<stop offset="0.04"/>
<stop offset="0.17" stop-color="#070707"/>
<stop offset="0.37" stop-color="#1B1B1B"/>
<stop offset="0.61" stop-color="#3C3C3C"/>
<stop offset="0.88" stop-color="#696969"/>
<stop offset="1" stop-color="#808080"/>
</radialGradient>
<radialGradient id="paint5_radial_1701_19622" cx="0" cy="0" r="1" gradientUnits="userSpaceOnUse" gradientTransform="translate(1575.44 1554.53) scale(819.278 888.536)">
<stop offset="0.04"/>
<stop offset="0.17" stop-color="#070707"/>
<stop offset="0.37" stop-color="#1B1B1B"/>
<stop offset="0.61" stop-color="#3C3C3C"/>
<stop offset="0.88" stop-color="#696969"/>
<stop offset="1" stop-color="#808080"/>
</radialGradient>
<radialGradient id="paint6_radial_1701_19622" cx="0" cy="0" r="1" gradientUnits="userSpaceOnUse" gradientTransform="translate(1575.44 1554.53) scale(819.278 888.535)">
<stop offset="0.04"/>
<stop offset="0.17" stop-color="#070707"/>
<stop offset="0.37" stop-color="#1B1B1B"/>
<stop offset="0.61" stop-color="#3C3C3C"/>
<stop offset="0.88" stop-color="#696969"/>
<stop offset="1" stop-color="#808080"/>
</radialGradient>
<radialGradient id="paint7_radial_1701_19622" cx="0" cy="0" r="1" gradientUnits="userSpaceOnUse" gradientTransform="translate(1575.43 1554.53) scale(819.285 888.543)">
<stop offset="0.04"/>
<stop offset="0.17" stop-color="#070707"/>
<stop offset="0.37" stop-color="#1B1B1B"/>
<stop offset="0.61" stop-color="#3C3C3C"/>
<stop offset="0.88" stop-color="#696969"/>
<stop offset="1" stop-color="#808080"/>
</radialGradient>
<radialGradient id="paint8_radial_1701_19622" cx="0" cy="0" r="1" gradientUnits="userSpaceOnUse" gradientTransform="translate(1575.44 1554.53) scale(819.278 888.536)">
<stop offset="0.04"/>
<stop offset="0.17" stop-color="#070707"/>
<stop offset="0.37" stop-color="#1B1B1B"/>
<stop offset="0.61" stop-color="#3C3C3C"/>
<stop offset="0.88" stop-color="#696969"/>
<stop offset="1" stop-color="#808080"/>
</radialGradient>
<radialGradient id="paint9_radial_1701_19622" cx="0" cy="0" r="1" gradientUnits="userSpaceOnUse" gradientTransform="translate(1575.43 1554.53) scale(819.286 888.543)">
<stop offset="0.04"/>
<stop offset="0.17" stop-color="#070707"/>
<stop offset="0.37" stop-color="#1B1B1B"/>
<stop offset="0.61" stop-color="#3C3C3C"/>
<stop offset="0.88" stop-color="#696969"/>
<stop offset="1" stop-color="#808080"/>
</radialGradient>
<radialGradient id="paint10_radial_1701_19622" cx="0" cy="0" r="1" gradientUnits="userSpaceOnUse" gradientTransform="translate(1575.44 1554.53) scale(819.285 888.543)">
<stop offset="0.04"/>
<stop offset="0.17" stop-color="#070707"/>
<stop offset="0.37" stop-color="#1B1B1B"/>
<stop offset="0.61" stop-color="#3C3C3C"/>
<stop offset="0.88" stop-color="#696969"/>
<stop offset="1" stop-color="#808080"/>
</radialGradient>
<radialGradient id="paint11_radial_1701_19622" cx="0" cy="0" r="1" gradientUnits="userSpaceOnUse" gradientTransform="translate(1575.44 1554.53) scale(819.286 888.543)">
<stop offset="0.04"/>
<stop offset="0.17" stop-color="#070707"/>
<stop offset="0.37" stop-color="#1B1B1B"/>
<stop offset="0.61" stop-color="#3C3C3C"/>
<stop offset="0.88" stop-color="#696969"/>
<stop offset="1" stop-color="#808080"/>
</radialGradient>
<radialGradient id="paint12_radial_1701_19622" cx="0" cy="0" r="1" gradientUnits="userSpaceOnUse" gradientTransform="translate(1575.44 1554.53) scale(819.278 888.536)">
<stop offset="0.04"/>
<stop offset="0.17" stop-color="#070707"/>
<stop offset="0.37" stop-color="#1B1B1B"/>
<stop offset="0.61" stop-color="#3C3C3C"/>
<stop offset="0.88" stop-color="#696969"/>
<stop offset="1" stop-color="#808080"/>
</radialGradient>
<radialGradient id="paint13_radial_1701_19622" cx="0" cy="0" r="1" gradientUnits="userSpaceOnUse" gradientTransform="translate(1575.44 1554.53) scale(819.278 888.535)">
<stop offset="0.04"/>
<stop offset="0.17" stop-color="#070707"/>
<stop offset="0.37" stop-color="#1B1B1B"/>
<stop offset="0.61" stop-color="#3C3C3C"/>
<stop offset="0.88" stop-color="#696969"/>
<stop offset="1" stop-color="#808080"/>
</radialGradient>
<radialGradient id="paint14_radial_1701_19622" cx="0" cy="0" r="1" gradientUnits="userSpaceOnUse" gradientTransform="translate(1575.43 1554.53) scale(819.278 888.535)">
<stop offset="0.04"/>
<stop offset="0.17" stop-color="#070707"/>
<stop offset="0.37" stop-color="#1B1B1B"/>
<stop offset="0.61" stop-color="#3C3C3C"/>
<stop offset="0.88" stop-color="#696969"/>
<stop offset="1" stop-color="#808080"/>
</radialGradient>
<radialGradient id="paint15_radial_1701_19622" cx="0" cy="0" r="1" gradientUnits="userSpaceOnUse" gradientTransform="translate(1575.44 1554.53) scale(819.285 888.543)">
<stop offset="0.04"/>
<stop offset="0.17" stop-color="#070707"/>
<stop offset="0.37" stop-color="#1B1B1B"/>
<stop offset="0.61" stop-color="#3C3C3C"/>
<stop offset="0.88" stop-color="#696969"/>
<stop offset="1" stop-color="#808080"/>
</radialGradient>
<radialGradient id="paint16_radial_1701_19622" cx="0" cy="0" r="1" gradientUnits="userSpaceOnUse" gradientTransform="translate(1575.44 1554.53) scale(819.285 888.543)">
<stop offset="0.04"/>
<stop offset="0.17" stop-color="#070707"/>
<stop offset="0.37" stop-color="#1B1B1B"/>
<stop offset="0.61" stop-color="#3C3C3C"/>
<stop offset="0.88" stop-color="#696969"/>
<stop offset="1" stop-color="#808080"/>
</radialGradient>
<radialGradient id="paint17_radial_1701_19622" cx="0" cy="0" r="1" gradientUnits="userSpaceOnUse" gradientTransform="translate(1575.44 1554.53) scale(819.285 888.543)">
<stop offset="0.04"/>
<stop offset="0.17" stop-color="#070707"/>
<stop offset="0.37" stop-color="#1B1B1B"/>
<stop offset="0.61" stop-color="#3C3C3C"/>
<stop offset="0.88" stop-color="#696969"/>
<stop offset="1" stop-color="#808080"/>
</radialGradient>
<radialGradient id="paint18_radial_1701_19622" cx="0" cy="0" r="1" gradientUnits="userSpaceOnUse" gradientTransform="translate(1575.44 1554.53) scale(819.278 888.535)">
<stop offset="0.04"/>
<stop offset="0.17" stop-color="#070707"/>
<stop offset="0.37" stop-color="#1B1B1B"/>
<stop offset="0.61" stop-color="#3C3C3C"/>
<stop offset="0.88" stop-color="#696969"/>
<stop offset="1" stop-color="#808080"/>
</radialGradient>
<radialGradient id="paint19_radial_1701_19622" cx="0" cy="0" r="1" gradientUnits="userSpaceOnUse" gradientTransform="translate(1575.44 1554.53) scale(819.278 888.535)">
<stop offset="0.04"/>
<stop offset="0.17" stop-color="#070707"/>
<stop offset="0.37" stop-color="#1B1B1B"/>
<stop offset="0.61" stop-color="#3C3C3C"/>
<stop offset="0.88" stop-color="#696969"/>
<stop offset="1" stop-color="#808080"/>
</radialGradient>
<radialGradient id="paint20_radial_1701_19622" cx="0" cy="0" r="1" gradientUnits="userSpaceOnUse" gradientTransform="translate(1575.44 1554.53) scale(819.271 888.528)">
<stop offset="0.04"/>
<stop offset="0.17" stop-color="#070707"/>
<stop offset="0.37" stop-color="#1B1B1B"/>
<stop offset="0.61" stop-color="#3C3C3C"/>
<stop offset="0.88" stop-color="#696969"/>
<stop offset="1" stop-color="#808080"/>
</radialGradient>
<radialGradient id="paint21_radial_1701_19622" cx="0" cy="0" r="1" gradientUnits="userSpaceOnUse" gradientTransform="translate(1575.44 1554.53) scale(819.278 888.535)">
<stop offset="0.04"/>
<stop offset="0.17" stop-color="#070707"/>
<stop offset="0.37" stop-color="#1B1B1B"/>
<stop offset="0.61" stop-color="#3C3C3C"/>
<stop offset="0.88" stop-color="#696969"/>
<stop offset="1" stop-color="#808080"/>
</radialGradient>
<radialGradient id="paint22_radial_1701_19622" cx="0" cy="0" r="1" gradientUnits="userSpaceOnUse" gradientTransform="translate(1575.44 1554.53) scale(819.285 888.543)">
<stop offset="0.04"/>
<stop offset="0.17" stop-color="#070707"/>
<stop offset="0.37" stop-color="#1B1B1B"/>
<stop offset="0.61" stop-color="#3C3C3C"/>
<stop offset="0.88" stop-color="#696969"/>
<stop offset="1" stop-color="#808080"/>
</radialGradient>
<radialGradient id="paint23_radial_1701_19622" cx="0" cy="0" r="1" gradientUnits="userSpaceOnUse" gradientTransform="translate(1575.44 1554.53) scale(819.278 888.536)">
<stop offset="0.04"/>
<stop offset="0.17" stop-color="#070707"/>
<stop offset="0.37" stop-color="#1B1B1B"/>
<stop offset="0.61" stop-color="#3C3C3C"/>
<stop offset="0.88" stop-color="#696969"/>
<stop offset="1" stop-color="#808080"/>
</radialGradient>
<radialGradient id="paint24_radial_1701_19622" cx="0" cy="0" r="1" gradientUnits="userSpaceOnUse" gradientTransform="translate(1575.44 1554.53) scale(819.285 888.543)">
<stop offset="0.04" stop-color="#131214"/>
<stop offset="0.17" stop-color="#131214"/>
<stop offset="0.37" stop-color="#131214"/>
<stop offset="0.61" stop-color="#3C3C3C"/>
<stop offset="0.88" stop-color="#696969"/>
<stop offset="1" stop-color="#808080"/>
</radialGradient>
<radialGradient id="paint25_radial_1701_19622" cx="0" cy="0" r="1" gradientUnits="userSpaceOnUse" gradientTransform="translate(1575.44 1554.53) scale(819.285 888.543)">
<stop offset="0.04" stop-color="#131214"/>
<stop offset="0.17" stop-color="#131214"/>
<stop offset="0.37" stop-color="#131214"/>
<stop offset="0.61" stop-color="#3C3C3C"/>
<stop offset="0.88" stop-color="#696969"/>
<stop offset="1" stop-color="#808080"/>
</radialGradient>
<radialGradient id="paint26_radial_1701_19622" cx="0" cy="0" r="1" gradientUnits="userSpaceOnUse" gradientTransform="translate(1575.44 1554.53) scale(819.285 888.543)">
<stop offset="0.04" stop-color="#131214"/>
<stop offset="0.17" stop-color="#131214"/>
<stop offset="0.37" stop-color="#1B1B1B"/>
<stop offset="0.61" stop-color="#3C3C3C"/>
<stop offset="0.88" stop-color="#696969"/>
<stop offset="1" stop-color="#808080"/>
</radialGradient>
<radialGradient id="paint27_radial_1701_19622" cx="0" cy="0" r="1" gradientUnits="userSpaceOnUse" gradientTransform="translate(1575.44 1554.53) scale(819.278 888.536)">
<stop offset="0.04" stop-color="#131214"/>
<stop offset="0.17" stop-color="#131214"/>
<stop offset="0.37" stop-color="#1B1B1B"/>
<stop offset="0.61" stop-color="#3C3C3C"/>
<stop offset="0.88" stop-color="#696969"/>
<stop offset="1" stop-color="#808080"/>
</radialGradient>
<radialGradient id="paint28_radial_1701_19622" cx="0" cy="0" r="1" gradientUnits="userSpaceOnUse" gradientTransform="translate(1575.44 1554.53) scale(819.278 888.535)">
<stop offset="0.04" stop-color="#131214"/>
<stop offset="0.17" stop-color="#131214"/>
<stop offset="0.37" stop-color="#131214"/>
<stop offset="0.61" stop-color="#3C3C3C"/>
<stop offset="0.88" stop-color="#696969"/>
<stop offset="1" stop-color="#808080"/>
</radialGradient>
<radialGradient id="paint29_radial_1701_19622" cx="0" cy="0" r="1" gradientUnits="userSpaceOnUse" gradientTransform="translate(1575.44 1554.53) scale(819.285 888.543)">
<stop offset="0.04" stop-color="#131214"/>
<stop offset="0.17" stop-color="#131214"/>
<stop offset="0.37" stop-color="#131214"/>
<stop offset="0.61" stop-color="#3C3C3C"/>
<stop offset="0.88" stop-color="#696969"/>
<stop offset="1" stop-color="#808080"/>
</radialGradient>
<radialGradient id="paint30_radial_1701_19622" cx="0" cy="0" r="1" gradientUnits="userSpaceOnUse" gradientTransform="translate(1575.43 1554.53) scale(819.285 888.543)">
<stop offset="0.04" stop-color="#131214"/>
<stop offset="0.17" stop-color="#131214"/>
<stop offset="0.37" stop-color="#131214"/>
<stop offset="0.61" stop-color="#3C3C3C"/>
<stop offset="0.88" stop-color="#696969"/>
<stop offset="1" stop-color="#808080"/>
</radialGradient>
<radialGradient id="paint31_radial_1701_19622" cx="0" cy="0" r="1" gradientUnits="userSpaceOnUse" gradientTransform="translate(1575.44 1554.53) scale(819.278 888.535)">
<stop offset="0.04" stop-color="#131214"/>
<stop offset="0.17" stop-color="#131214"/>
<stop offset="0.37" stop-color="#131214"/>
<stop offset="0.61" stop-color="#3C3C3C"/>
<stop offset="0.88" stop-color="#696969"/>
<stop offset="1" stop-color="#808080"/>
</radialGradient>
<radialGradient id="paint32_radial_1701_19622" cx="0" cy="0" r="1" gradientUnits="userSpaceOnUse" gradientTransform="translate(1575.44 1554.53) scale(819.278 888.535)">
<stop offset="0.04" stop-color="#131214"/>
<stop offset="0.17" stop-color="#131214"/>
<stop offset="0.37" stop-color="#131214"/>
<stop offset="0.61" stop-color="#3C3C3C"/>
<stop offset="0.88" stop-color="#696969"/>
<stop offset="1" stop-color="#808080"/>
</radialGradient>
<radialGradient id="paint33_radial_1701_19622" cx="0" cy="0" r="1" gradientUnits="userSpaceOnUse" gradientTransform="translate(1575.44 1554.53) scale(819.285 888.543)">
<stop offset="0.04" stop-color="#131214"/>
<stop offset="0.17" stop-color="#131214"/>
<stop offset="0.37" stop-color="#131214"/>
<stop offset="0.61" stop-color="#3C3C3C"/>
<stop offset="0.88" stop-color="#696969"/>
<stop offset="1" stop-color="#808080"/>
</radialGradient>
<radialGradient id="paint34_radial_1701_19622" cx="0" cy="0" r="1" gradientUnits="userSpaceOnUse" gradientTransform="translate(1575.44 1554.53) scale(819.278 888.536)">
<stop offset="0.04" stop-color="#131214"/>
<stop offset="0.17" stop-color="#131214"/>
<stop offset="0.37" stop-color="#1B1B1B"/>
<stop offset="0.61" stop-color="#3C3C3C"/>
<stop offset="0.88" stop-color="#696969"/>
<stop offset="1" stop-color="#808080"/>
</radialGradient>
<radialGradient id="paint35_radial_1701_19622" cx="0" cy="0" r="1" gradientUnits="userSpaceOnUse" gradientTransform="translate(1575.44 1554.53) scale(819.278 888.535)">
<stop offset="0.04" stop-color="#131214"/>
<stop offset="0.17" stop-color="#131214"/>
<stop offset="0.37" stop-color="#131214"/>
<stop offset="0.61" stop-color="#3C3C3C"/>
<stop offset="0.88" stop-color="#696969"/>
<stop offset="1" stop-color="#808080"/>
</radialGradient>
<radialGradient id="paint36_radial_1701_19622" cx="0" cy="0" r="1" gradientUnits="userSpaceOnUse" gradientTransform="translate(1575.44 1554.53) scale(819.285 888.543)">
<stop offset="0.04" stop-color="#131214"/>
<stop offset="0.17" stop-color="#131214"/>
<stop offset="0.37" stop-color="#131214"/>
<stop offset="0.61" stop-color="#131214"/>
<stop offset="0.88" stop-color="#696969"/>
<stop offset="1" stop-color="#808080"/>
</radialGradient>
<radialGradient id="paint37_radial_1701_19622" cx="0" cy="0" r="1" gradientUnits="userSpaceOnUse" gradientTransform="translate(1564.5 1543.5) rotate(90) scale(315.5 330.5)">
<stop offset="0.764423" stop-color="#131214"/>
<stop offset="1" stop-color="#131214" stop-opacity="0"/>
</radialGradient>
</defs>
</svg>
