<svg width="212" height="228" viewBox="0 0 212 228" fill="none" xmlns="http://www.w3.org/2000/svg">
<path d="M118.836 221.619C113.517 221.619 108.806 219.036 105.311 214.174C101.816 209.237 94.5978 194.424 103.792 162.975C110.706 139.426 125.219 112.762 146.114 85.0353C122.863 110.863 99.4606 130.234 77.7297 141.477C48.6286 156.518 32.6723 152.264 27.2016 149.757C19.5274 146.262 15.8803 139.502 17.3239 131.146C18.3117 125.144 23.7824 109.572 52.4277 93.9231C73.9306 82.1486 103.108 73.5647 137.452 68.7789C102.728 70.6021 72.487 67.7914 49.1605 60.3469C18.0078 50.3956 9.64975 36.1143 7.59823 30.493C4.63493 22.5927 6.91439 15.2241 13.7528 10.3624C18.6916 6.86807 33.5081 -0.348534 64.9647 8.84315C88.5192 15.7559 115.189 30.2651 142.922 51.1552C117.088 27.9102 97.713 4.51318 86.4677 -17.2126C71.4232 -46.3069 75.6782 -62.2594 78.1856 -67.7288C81.6808 -75.4012 88.4432 -79.0475 96.8012 -77.6042C102.804 -76.6166 118.38 -71.1472 134.032 -42.5087C145.81 -21.0108 154.396 8.15945 159.183 42.4953C157.359 7.77963 160.17 -22.4541 167.617 -45.7752C177.57 -76.9205 191.855 -85.2766 197.478 -87.3276C205.38 -90.2902 212.75 -88.0113 217.613 -81.1745C221.108 -76.2368 228.326 -61.4238 219.132 -29.9746C212.218 -6.42568 197.706 20.2378 176.81 47.9647C200.061 22.1369 223.463 2.766 245.194 -8.47672C274.296 -23.5176 290.252 -19.2636 295.722 -16.7568C303.397 -13.2625 307.044 -6.50165 305.6 1.85442C304.612 7.85559 299.142 23.4283 270.496 39.0769C248.993 50.8514 219.816 59.4353 185.472 64.2211C220.196 62.3979 250.437 65.2086 273.764 72.6531C304.916 82.6044 313.274 96.8857 315.326 102.507C318.289 110.407 316.01 117.776 309.171 122.638C304.232 126.132 289.416 133.349 257.959 124.157C234.405 117.244 207.735 102.735 180.002 81.8448C205.836 105.09 225.211 128.487 236.456 150.213C251.501 179.307 247.246 195.259 244.738 200.729C241.243 208.401 234.481 212.048 226.123 210.604C220.12 209.617 204.544 204.147 188.892 175.509C177.114 154.011 168.528 124.841 163.741 90.5047C165.565 125.22 162.754 155.454 155.307 178.775C145.354 209.921 131.069 218.277 125.447 220.328C123.243 221.239 120.964 221.619 118.836 221.619ZM158.043 71.2857C131.069 104.026 112.606 135.779 104.551 163.202C95.4336 194.272 102.5 208.857 105.919 213.719C110.63 220.328 117.62 222.455 125.219 219.644C130.765 217.593 144.822 209.389 154.624 178.547C163.286 151.276 165.793 114.585 161.69 72.4252L162.45 72.3493C166.477 114.509 175.899 150.137 189.651 175.205C205.228 203.615 220.5 208.933 226.351 209.921C234.329 211.288 240.787 207.793 244.131 200.425C246.562 195.031 250.741 179.307 235.849 150.592C222.704 125.22 198.465 97.4934 165.793 70.5261L166.249 69.9184C198.997 96.8857 230.758 115.345 258.187 123.397C289.264 132.513 303.853 125.448 308.715 122.03C315.326 117.32 317.453 110.331 314.642 102.735C312.59 97.1896 304.384 83.1362 273.536 73.3368C246.258 64.6769 209.559 62.17 167.389 66.2721L167.313 65.5125C209.483 61.4864 245.118 52.0668 270.192 38.3173C298.61 22.7446 303.929 7.47578 304.916 1.62653C306.284 -6.34971 302.789 -12.8067 295.419 -16.1491C290.024 -18.58 274.296 -22.758 245.574 -7.869C220.196 5.27282 192.463 29.5054 165.489 62.17L164.881 61.7142C191.855 28.9737 210.319 -2.7794 218.373 -30.2025C227.49 -61.2719 220.424 -75.857 217.005 -80.7187C212.294 -87.3276 205.304 -89.4546 197.706 -86.6439C192.159 -84.5929 178.102 -76.3887 168.3 -45.5473C159.638 -18.2761 157.131 18.4146 161.234 60.5748L160.474 60.6508C156.447 18.4906 147.025 -17.1366 133.273 -42.2048C117.696 -70.6155 102.424 -75.933 96.5733 -76.9205C88.5952 -78.2879 82.1367 -74.7935 78.7935 -67.425C76.3621 -62.0315 72.183 -46.3069 87.0755 -17.5924C100.22 7.77964 124.459 35.5066 157.131 62.4739L156.675 63.0816C123.927 36.1143 92.1663 17.655 64.7368 9.60278C33.6601 0.487076 19.0715 7.55174 14.2087 10.9701C7.59823 15.6799 5.47073 22.6686 8.28207 30.2651C10.3336 35.8104 18.5397 49.8638 49.3884 59.6632C76.666 68.3232 113.365 70.83 155.535 66.7279L155.611 67.4875C113.441 71.5136 77.8057 80.9332 52.7316 94.6827C24.3143 110.255 18.9955 125.524 18.0078 131.373C16.6401 139.35 20.1353 145.807 27.5055 149.149C32.9003 151.58 48.6286 155.758 77.3498 140.869C102.728 127.727 130.461 103.495 157.435 70.83L158.043 71.2857Z" fill="#E7E7E7" fill-opacity="0.3"/>
<path d="M109.263 218.353C103.488 218.353 98.5496 215.466 95.1304 209.921C91.9392 204.755 85.8606 189.486 97.182 158.797C105.692 135.855 122.028 110.18 144.899 84.0479C119.901 108.204 95.2064 125.904 72.7157 135.552C42.6268 148.466 27.0504 143.148 21.7317 140.261C14.2855 136.235 11.1702 129.247 13.1457 120.967C14.5894 115.117 21.0479 99.9244 50.7569 86.2508C73.0196 75.9957 102.729 69.4627 137.376 67.1078C102.653 66.5761 72.6397 61.5624 49.9211 52.5227C19.5282 40.4444 12.2339 25.6313 10.4863 19.8581C8.05492 11.7299 10.8663 4.58925 18.0086 0.183319C23.1754 -3.00718 38.4478 -9.08432 69.1445 2.23435C92.0911 10.7423 117.773 27.0747 143.911 49.9399C119.749 24.9477 102.045 0.259285 92.3951 -22.2261C79.4781 -52.308 84.7969 -67.8806 87.6842 -73.1981C91.7112 -80.6426 98.7016 -83.7572 106.984 -81.7821C112.834 -80.3388 128.031 -73.8818 141.707 -44.1798C151.965 -21.9223 158.5 7.77975 160.855 42.4194C161.387 7.70378 166.402 -22.3021 175.444 -45.0154C187.525 -75.4011 202.341 -82.6937 208.116 -84.4409C216.246 -86.8717 223.388 -84.061 227.795 -76.9204C230.986 -71.7548 237.065 -56.486 225.744 -25.7965C217.234 -2.85525 200.898 22.8207 178.027 48.9524C203.025 24.7957 227.719 7.09608 250.21 -2.55138C280.299 -15.4653 295.875 -10.1478 301.194 -7.26118C308.64 -3.23508 311.755 3.75365 309.78 12.0337C308.336 17.883 301.878 33.0758 272.169 46.7494C249.906 57.0046 220.197 63.5375 185.549 65.8924C220.273 66.4241 250.286 71.4378 273.005 80.4775C303.397 92.5558 310.692 107.369 312.439 113.142C314.871 121.27 312.059 128.411 304.917 132.817C299.75 136.007 284.478 142.085 253.781 130.766C230.834 122.258 205.153 105.926 179.015 83.0603C203.177 108.053 220.881 132.741 230.531 155.226C243.448 185.308 238.129 200.881 235.241 206.198C231.214 213.643 224.224 216.757 215.942 214.782C210.091 213.339 194.895 206.882 181.218 177.18C170.961 154.923 164.426 125.22 162.071 90.5808C161.539 125.296 156.524 155.302 147.482 178.016C135.401 208.401 120.584 215.694 114.81 217.441C112.91 218.049 111.087 218.353 109.263 218.353ZM157.74 71.058C128.563 101.823 107.895 132.209 97.9418 159.025C86.6964 189.41 92.699 204.451 95.8143 209.541C100.069 216.454 106.908 219.036 114.658 216.757C120.357 215.086 134.869 207.87 146.874 177.788C157.436 151.2 162.451 114.813 161.311 72.4253H162.071C163.21 114.813 170.049 150.896 182.054 176.876C195.579 206.274 210.471 212.731 216.246 214.099C224.072 215.998 230.835 212.959 234.634 205.895C237.445 200.653 242.688 185.308 229.847 155.606C218.525 129.323 196.263 100.076 165.566 70.9061L166.098 70.3743C196.87 99.5446 227.263 120.207 254.085 130.158C284.478 141.401 299.522 135.4 304.613 132.285C311.527 128.031 314.111 121.194 311.831 113.446C310.16 107.749 302.942 93.2395 272.853 81.2372C246.259 70.6781 209.863 65.6645 167.465 66.804V66.0443C209.863 64.9049 245.955 58.0681 271.941 46.0657C301.346 32.5441 307.804 17.6551 309.172 11.8818C311.072 4.0575 308.032 -2.70332 300.966 -6.50153C295.723 -9.31222 280.375 -14.5537 250.666 -1.71579C224.376 9.60289 195.123 31.8604 165.946 62.55L165.338 61.9423C194.515 31.1767 215.182 0.791031 225.136 -26.0243C236.381 -56.41 230.379 -71.451 227.263 -76.5406C223.008 -83.4533 216.17 -86.0361 208.42 -83.7572C202.721 -82.086 188.209 -74.8694 176.203 -44.7875C165.642 -18.2 160.627 18.1869 161.767 60.5749H161.007C159.867 18.1869 153.029 -17.8962 141.024 -43.8759C127.499 -73.2741 112.606 -79.7311 106.832 -81.0984C99.0055 -82.9975 92.2431 -79.959 88.444 -72.8943C85.6327 -67.6528 80.3899 -52.308 93.2309 -22.606C104.552 3.67767 126.815 32.9239 157.512 62.0942L156.98 62.7019C126.207 33.5316 95.8143 12.8694 68.9926 2.91804C38.5997 -8.32467 23.5553 -2.3235 18.4645 0.791039C11.5501 5.04504 8.96671 11.8818 11.2462 19.6302C12.9178 25.3275 20.1361 39.8367 50.225 51.839C76.8187 62.398 113.214 67.4117 155.612 66.2722V67.0319C113.214 68.1713 77.1227 75.0081 51.1368 87.0105C21.7317 100.532 15.2732 115.421 13.9055 121.194C12.006 129.019 15.0453 135.78 22.1116 139.578C27.3544 142.388 42.7028 147.63 72.4118 134.792C98.7016 123.473 127.955 101.216 157.132 70.5262L157.74 71.058Z" fill="#E7E7E7" fill-opacity="0.3"/>
<path d="M211.458 219.188C209.559 219.188 207.583 218.884 205.607 218.277C199.833 216.453 185.168 208.933 173.619 178.319C164.957 155.378 160.474 125.372 160.55 90.5807C157.587 125.144 150.52 154.771 139.883 176.8C125.674 206.274 110.402 212.503 104.551 213.795C96.2692 215.618 89.3548 212.351 85.4037 204.907C82.5924 199.513 77.5776 183.865 91.0264 154.011C101.132 131.677 119.216 107.293 143.834 82.7564C117.24 105.09 91.3304 121.042 68.2318 129.095C37.383 139.882 22.1106 133.501 17.0198 130.234C9.87752 125.676 7.29412 118.46 9.80153 110.407C11.6251 104.634 19.1473 89.973 49.7681 78.4265C72.7147 69.7665 102.804 65.2846 137.527 65.3606C102.956 62.398 73.3226 55.3333 51.2878 44.6983C21.8067 30.493 15.5762 15.2242 14.2845 9.37493C12.4609 1.09483 15.7281 -5.81792 23.1744 -9.76806C28.5691 -12.5787 44.2214 -17.5924 74.0824 -4.14671C96.4212 5.95654 120.811 24.036 145.354 48.6485C123.015 22.061 107.059 -3.84285 99.0045 -26.936C88.2151 -57.7775 94.5976 -73.0463 97.8648 -78.1359C102.424 -85.2765 109.642 -87.8593 117.696 -85.3525C123.471 -83.5294 138.135 -76.0089 149.685 -45.3953C158.347 -22.4541 162.83 7.5518 162.754 42.3434C165.717 7.77969 172.783 -21.8464 183.421 -43.876C197.629 -73.3501 212.902 -79.5792 218.752 -80.8706C227.034 -82.6937 233.949 -79.4273 237.9 -71.9828C240.711 -66.5893 245.726 -50.9407 232.277 -21.0867C222.172 1.24675 204.088 25.6313 179.47 50.1677C206.063 27.8343 231.973 11.8818 255.072 3.82954C285.997 -6.95738 301.193 -0.576385 306.284 2.69008C313.426 7.24793 316.009 14.4645 313.502 22.5168C311.678 28.29 304.156 42.9511 273.535 54.4977C250.741 63.0817 220.804 67.5636 186.232 67.5636C186.08 67.5636 185.928 67.5636 185.776 67.5636C220.348 70.5262 249.981 77.5908 272.016 88.2258C301.497 102.431 307.727 117.7 309.019 123.549C310.843 131.829 307.575 138.742 300.129 142.692C294.734 145.503 279.082 150.517 249.221 137.071C226.882 126.968 202.492 108.888 177.95 84.2757C200.289 110.863 216.245 136.767 224.299 159.86C235.089 190.778 228.706 205.97 225.439 211.06C222.02 216.378 217.081 219.188 211.458 219.188ZM161.69 72.4253C159.866 114.813 164.197 151.276 174.303 178.016C185.776 208.325 200.137 215.77 205.835 217.517C213.51 219.948 220.424 217.441 224.755 210.604C227.946 205.591 234.177 190.626 223.539 160.088C214.117 133.121 193.982 102.355 165.261 71.0579L165.793 70.5262C194.438 101.747 223.387 124.537 249.449 136.311C279.006 149.681 294.431 144.743 299.673 141.933C306.816 138.21 309.931 131.525 308.183 123.625C306.892 117.852 300.737 102.811 271.56 88.7576C245.802 76.3754 209.786 68.8549 167.388 66.9558V66.1962C209.786 68.0193 246.258 63.6894 273.004 53.5861C303.32 42.1155 310.767 27.7583 312.514 22.061C314.946 14.3886 312.438 7.47583 305.6 3.14587C300.585 -0.044632 285.617 -6.27371 255.072 4.36129C228.098 13.7809 197.325 33.9114 166.021 62.6259L165.489 62.0941C196.718 33.4556 219.512 4.51322 231.289 -21.5425C244.662 -51.0926 239.647 -66.5134 236.912 -71.7549C233.189 -78.8955 226.503 -82.0101 218.6 -80.2629C212.826 -78.9715 197.781 -72.8184 183.725 -43.6481C171.34 -17.8962 163.817 18.1108 161.918 60.4989H161.158C162.981 18.1108 158.651 -18.352 148.545 -45.0914C137.072 -75.4012 122.711 -82.8457 117.012 -84.5929C109.338 -87.0237 102.424 -84.5169 98.0928 -77.6801C94.9015 -72.6665 88.671 -57.7015 99.3085 -27.1639C108.73 -0.196571 128.866 30.569 157.587 61.8662L157.055 62.398C128.41 31.1767 99.4604 8.3874 73.3986 -3.38706C43.8415 -16.7568 28.4172 -11.7431 23.1744 -9.00842C16.0321 -5.28616 12.9168 1.39868 14.6644 9.29897C15.9561 15.0723 22.1106 30.1132 51.2878 44.1666C77.0457 56.5487 113.061 64.0692 155.459 65.9683V66.728C113.061 64.9048 76.5898 69.2348 49.8441 79.338C19.5272 90.8086 12.081 105.166 10.3334 110.863C7.90198 118.536 10.4094 125.448 17.2478 129.778C22.2626 132.969 37.2311 139.198 67.7759 128.563C94.7495 119.143 125.522 99.0128 156.827 70.2983L157.359 70.83C126.13 99.4685 103.336 128.411 91.5583 154.467C78.1854 184.017 83.2003 199.438 85.9356 204.679C89.6587 211.82 96.3452 214.934 104.247 213.187C110.022 211.896 125.066 205.743 139.123 176.572C151.508 150.82 159.03 114.813 160.93 72.4253H161.69Z" fill="#E7E7E7" fill-opacity="0.3"/>
<path d="M201.808 222.379C199.604 222.379 197.249 221.923 194.893 221.011C189.271 218.808 175.138 210.224 165.716 178.927C158.65 155.454 156.294 125.144 158.802 90.5047C153.407 124.841 144.289 153.783 132.132 175.053C115.948 203.464 100.22 208.629 94.2929 209.541C85.9349 210.756 79.2485 207.034 75.8293 199.285C73.3979 193.74 69.4468 177.712 85.0231 148.921C96.6484 127.347 116.404 104.254 142.618 81.5409C114.504 101.975 87.6065 116.029 63.9761 122.486C32.4435 131.146 17.703 123.701 12.8401 120.055C6.07769 115.041 3.95019 107.673 6.98948 99.7723C9.19296 94.151 17.7789 80.0216 49.0836 70.6021C72.562 63.5374 102.879 61.1825 137.527 63.6893C103.183 58.2959 74.2337 49.1801 52.9587 37.0259C24.5413 20.8455 19.3746 5.12087 18.4628 -0.804337C17.2471 -9.16041 20.9702 -15.8453 28.7204 -19.2636C34.2671 -21.6945 50.2993 -25.6446 79.0965 -10.072C100.675 1.55055 123.774 21.3013 146.493 47.5089C126.053 19.4021 111.997 -7.48919 105.538 -31.1141C96.8763 -62.6392 104.323 -77.3763 107.97 -82.238C112.985 -88.9988 120.355 -91.1258 128.257 -88.0873C133.88 -85.8843 148.012 -77.3003 157.434 -46.0031C164.5 -22.5301 166.856 7.77962 164.348 42.4193C169.743 8.08348 178.861 -20.8589 191.018 -42.1289C207.202 -70.5395 222.931 -75.7051 228.857 -76.6167C237.215 -77.8321 243.902 -74.1098 247.321 -66.3615C249.752 -60.8161 253.703 -44.7876 238.127 -15.9972C226.502 5.57666 206.746 28.6698 180.533 51.3831C208.646 30.9487 235.544 16.8953 259.174 10.4384C290.707 1.77844 305.447 9.22294 310.31 12.8692C317.072 17.8829 319.2 25.2514 316.161 33.1517C313.957 38.773 305.371 52.9024 274.067 62.3219C250.588 69.3866 220.271 71.7415 185.623 69.2347C219.967 74.6282 248.917 83.7439 270.192 95.8982C298.609 112.079 303.776 127.803 304.687 133.728C305.903 142.084 302.18 148.769 294.43 152.188C288.883 154.618 272.851 158.569 244.054 142.996C222.475 131.373 199.376 111.623 176.658 85.4151C197.097 113.522 211.153 140.413 217.612 164.038C226.274 195.563 218.828 210.3 215.18 215.162C211.609 219.872 206.974 222.379 201.808 222.379ZM161.233 72.4252C156.446 114.509 158.27 151.276 166.476 178.699C175.746 209.693 189.65 218.125 195.197 220.328C202.719 223.29 209.786 221.239 214.573 214.782C218.144 209.996 225.438 195.563 216.852 164.266C209.33 136.691 191.322 104.558 164.956 71.4377L165.564 70.9819C191.93 104.178 219.208 128.867 244.358 142.388C272.851 157.733 288.655 153.935 294.05 151.504C301.42 148.313 304.991 141.857 303.852 133.88C302.94 128.031 297.925 112.61 269.736 96.5818C244.889 82.4525 209.482 72.4252 167.388 67.6395L167.464 66.8798C209.558 71.6656 246.333 69.8424 273.763 61.6383C304.763 52.3706 313.197 38.4692 315.401 32.9238C318.364 25.4033 316.313 18.3387 309.854 13.5529C305.067 9.98258 290.631 2.69002 259.326 11.274C231.745 18.7944 199.604 36.798 166.476 63.1576L166.02 62.5499C199.224 36.1902 223.918 8.91909 237.443 -16.2251C252.792 -44.7117 248.993 -60.5122 246.561 -65.9057C243.37 -73.2742 236.911 -76.8446 228.933 -75.7051C223.083 -74.7935 207.658 -69.7799 191.626 -41.5971C177.493 -16.7568 167.464 18.6425 162.677 60.7267L161.917 60.6507C166.704 18.5665 164.88 -18.2001 156.674 -45.6232C147.404 -76.6167 133.5 -85.0487 127.953 -87.2517C120.431 -90.2143 113.364 -88.1632 108.578 -81.7063C105.006 -76.9205 97.7121 -62.4873 106.298 -31.19C113.82 -3.61501 131.828 28.5179 158.194 61.6383L157.586 62.0941C131.22 28.8977 103.943 4.2093 78.7926 -9.31233C50.2993 -24.6571 34.495 -20.7829 29.1003 -18.428C21.73 -15.2375 18.1588 -8.78059 19.2986 -0.804337C20.2104 5.04491 25.2252 20.4656 53.4145 36.4941C78.2607 50.6235 113.668 60.6507 155.762 65.4365L155.686 66.1961C113.592 61.4104 76.817 63.2335 49.3875 71.4377C18.3868 80.7053 9.95278 94.6068 7.7493 100.152C4.78599 107.673 6.83751 114.737 13.296 119.523C18.0829 123.093 32.5195 130.386 63.8241 121.802C91.4056 114.281 123.546 96.278 156.674 69.9184L157.13 70.5261C123.926 96.8857 99.2318 124.157 85.7069 149.301C70.3586 177.788 74.1577 193.588 76.5891 198.982C79.7803 206.35 86.2388 209.92 94.2169 208.781C100.068 207.869 115.492 202.856 131.524 174.673C145.657 149.833 155.686 114.433 160.473 72.3492L161.233 72.4252Z" fill="#E7E7E7" fill-opacity="0.3"/>
<path d="M191.931 224.809C189.348 224.809 186.688 224.202 184.029 222.91C178.558 220.328 165.11 210.832 157.891 178.851C152.497 154.922 152.269 124.537 157.131 90.2008C149.381 124.081 138.212 152.34 124.687 172.698C106.527 199.893 90.5711 203.995 84.4925 204.451C76.0585 205.135 69.6 200.957 66.7887 192.98C64.7372 187.283 61.9258 171.027 79.4777 143.376C92.5466 122.638 113.898 100.988 141.707 80.1735C112.302 98.6328 84.4166 110.787 60.4062 115.573C28.3417 121.954 14.1331 113.522 9.57416 109.648C3.11568 104.178 1.52006 96.6578 5.1672 88.9854C7.75059 83.516 17.2484 70.0703 49.2368 62.8537C73.1712 57.4602 103.564 57.2323 137.908 62.094C104.02 54.3457 75.7546 43.1789 55.3914 29.6573C28.1898 11.5018 24.0868 -4.45065 23.6309 -10.5278C22.947 -18.9598 27.126 -25.4168 35.1042 -28.2275C40.8028 -30.2785 57.063 -33.0892 84.7205 -15.5414C105.464 -2.47558 127.119 18.8704 147.938 46.6733C129.474 17.2751 117.317 -10.6038 112.53 -34.6085C106.147 -66.6654 114.581 -80.8707 118.457 -85.4285C123.927 -91.8855 131.449 -93.4808 139.124 -89.8345C144.594 -87.2517 158.043 -77.7562 165.262 -45.7752C170.656 -21.8465 170.884 8.53923 166.021 42.8751C173.772 8.99502 184.941 -19.2637 198.466 -39.6221C216.625 -66.8173 232.582 -70.9194 238.66 -71.3752C247.094 -72.0588 253.553 -67.8808 256.364 -59.9046C258.416 -54.2072 261.227 -37.9509 243.675 -10.2999C230.606 10.4383 209.255 32.0882 181.446 52.9024C210.851 34.443 238.736 22.2888 262.747 17.503C294.811 11.122 309.02 19.5541 313.579 23.4282C320.037 28.8977 321.633 36.4181 317.986 44.0905C315.402 49.5599 305.904 63.0056 273.916 70.2222C249.982 75.6157 219.589 75.8436 185.245 70.9818C219.133 78.7302 247.398 89.897 267.761 103.419C294.963 121.574 299.066 137.527 299.522 143.604C300.206 152.036 296.027 158.493 288.049 161.303C282.35 163.354 266.09 166.165 238.432 148.617C217.689 135.551 196.034 114.206 175.215 86.4026C193.679 115.801 205.836 143.68 210.623 167.684C217.005 199.741 208.571 213.947 204.696 218.504C201.125 222.682 196.718 224.809 191.931 224.809ZM160.855 72.3492C153.104 114.054 152.345 150.82 158.651 178.699C165.793 210.3 179.014 219.644 184.333 222.227C191.627 225.721 198.846 224.202 204.088 218.049C207.964 213.567 216.246 199.589 209.863 167.836C204.24 139.805 188.588 106.533 164.578 71.5896L165.186 71.1338C189.196 106.077 214.65 132.589 238.812 147.858C266.166 165.178 282.198 162.443 287.745 160.468C295.343 157.809 299.37 151.58 298.762 143.528C298.306 137.603 294.279 121.878 267.382 103.95C243.599 88.0738 208.951 75.6157 167.313 67.8673L167.465 67.1077C209.179 74.856 245.955 75.6157 273.84 69.3106C305.449 62.17 314.794 48.9522 317.378 43.6347C320.873 36.3421 319.353 29.1255 313.199 23.884C308.716 20.0098 294.735 11.7297 262.975 18.1107C234.937 23.7321 201.657 39.3807 166.705 63.3854L166.249 62.7777C201.201 38.773 227.719 13.325 242.991 -10.8316C260.315 -38.1788 257.58 -54.2072 255.604 -59.7526C252.945 -67.3491 246.714 -71.3752 238.66 -70.7674C232.734 -70.3117 217.005 -66.2856 199.074 -39.3942C183.193 -15.6174 170.732 19.0223 162.982 60.6507L162.222 60.4988C169.972 18.7944 170.732 -17.9723 164.426 -45.8512C157.359 -77.3004 144.063 -86.644 138.744 -89.2268C131.449 -92.7211 124.231 -91.2018 118.988 -85.0487C115.113 -80.5668 106.831 -66.5894 113.214 -34.8363C118.836 -6.80554 134.489 26.4668 158.499 61.4104L157.891 61.8661C133.881 26.9226 108.427 0.411057 84.2646 -14.8578C56.911 -32.1776 40.8788 -29.4429 35.3321 -27.4678C27.7339 -24.8091 23.7068 -18.58 24.3147 -10.5278C24.7706 -4.60257 28.7976 11.122 55.6953 29.0496C79.4777 44.9261 114.126 57.3842 155.764 65.1326L155.612 65.8922C113.898 58.1439 77.1223 57.3842 49.2368 63.6893C17.7042 70.678 8.35845 83.9717 5.77506 89.2892C2.27988 96.5818 3.79952 103.798 9.95407 109.04C14.437 112.914 28.4177 121.194 60.1783 114.813C88.2157 109.192 121.496 93.5432 156.448 69.5385L156.903 70.1462C121.952 94.151 95.434 119.599 80.1616 143.756C62.8376 171.103 65.573 187.131 67.5485 192.677C70.2079 200.273 76.4384 204.299 84.4925 203.691C90.4192 203.236 106.147 199.21 124.079 172.318C139.959 148.541 152.421 113.902 160.171 72.2733L160.855 72.3492Z" fill="#E7E7E7" fill-opacity="0.3"/>
<path d="M181.9 226.633C179.013 226.633 175.974 225.797 173.01 224.126C167.768 221.163 154.927 210.756 149.988 178.395C146.265 154.163 148.164 123.853 155.459 89.8969C145.353 123.093 132.284 150.592 117.316 169.963C97.3322 195.867 81.072 198.754 74.9935 198.83C74.9175 198.83 74.8415 198.83 74.7655 198.83C66.4075 198.83 60.3289 194.196 58.1254 186.144C56.5298 180.294 54.8582 163.886 74.2336 137.526C88.7462 117.776 111.541 97.6452 140.718 78.8061C110.097 95.1384 81.4519 105.318 57.1377 108.432C24.6933 112.61 11.1685 103.191 6.8375 98.9366C0.83491 93.0114 -0.22884 85.415 3.87419 78.0465C6.8375 72.8049 17.247 59.967 49.6154 55.0293C73.8537 51.307 104.171 53.2062 138.135 60.4987C104.93 50.3955 77.4249 37.3296 58.0494 22.3647C32.1395 2.38606 29.2522 -13.8703 29.1762 -19.9474C29.1003 -28.3795 33.7352 -34.5326 41.8653 -36.8115C47.7159 -38.4067 64.128 -40.078 90.4938 -20.7071C110.249 -6.1979 130.384 16.5914 149.228 45.7617C132.892 15.1481 122.71 -13.4905 119.595 -37.799C115.416 -70.2358 124.838 -83.7574 129.093 -88.0874C135.019 -94.0885 142.618 -95.152 149.988 -91.05C155.231 -88.0874 168.072 -77.6803 173.01 -45.3195C176.734 -21.0869 174.834 9.22285 167.54 43.1789C177.645 9.98249 190.714 -17.5166 205.683 -36.8875C225.666 -62.7913 241.926 -65.6779 248.005 -65.7539C256.515 -65.8298 262.593 -61.196 264.873 -53.0678C266.468 -47.2186 268.14 -30.8103 248.765 -4.45071C234.252 15.3 211.457 35.4305 182.28 54.2697C212.901 37.9373 241.546 27.7581 265.861 24.6436C298.305 20.4656 311.83 29.8851 316.161 34.1391C322.163 40.0643 323.227 47.6608 319.124 55.0293C316.161 60.2708 305.751 73.1088 273.383 78.0465C249.144 81.7687 218.828 79.8696 184.864 72.577C218.068 82.6803 245.573 95.7462 264.949 110.711C290.859 130.69 293.746 146.946 293.822 153.023C293.898 161.455 289.263 167.608 281.133 169.887C275.282 171.483 258.87 173.154 232.504 153.783C212.749 139.274 192.614 116.484 173.77 87.3141C190.106 117.928 200.288 146.566 203.403 170.875C207.582 203.312 198.16 216.833 193.906 221.163C190.41 224.809 186.231 226.633 181.9 226.633ZM160.397 72.3492C149.76 113.37 146.417 149.985 150.748 178.243C155.611 210.224 168.224 220.479 173.39 223.442C180.457 227.392 187.675 226.405 193.374 220.631C197.553 216.377 206.746 203.084 202.643 170.951C198.996 142.616 185.699 108.28 164.196 71.7414L164.88 71.3616C186.383 107.9 209.938 136.159 232.96 153.099C259.098 172.242 275.206 170.647 280.905 169.052C288.655 166.925 293.138 160.999 293.062 152.947C292.986 147.022 290.099 131.07 264.493 111.243C241.85 93.7711 208.19 78.8821 167.16 68.323L167.312 67.5634C208.342 78.1984 245.041 81.5408 273.231 77.2109C305.219 72.3492 315.553 59.7391 318.44 54.5735C322.391 47.5088 321.403 40.2922 315.629 34.5949C311.374 30.4169 298.077 21.2252 265.937 25.3273C237.595 28.9736 203.251 42.2673 166.704 63.7652L166.324 63.0815C202.871 41.5836 231.137 18.0347 248.081 -4.98247C267.228 -31.1142 265.633 -47.2186 264.037 -52.9159C261.909 -60.6643 256.135 -65.0702 248.157 -65.0702C248.081 -65.0702 248.005 -65.0702 248.005 -65.0702C242.078 -64.9942 226.122 -62.1076 206.291 -36.5076C188.815 -13.8703 173.922 19.7819 163.361 60.8026L162.601 60.6507C173.238 19.63 176.582 -16.9848 172.251 -45.2435C167.388 -77.2245 154.775 -87.4796 149.608 -90.4423C142.542 -94.3924 135.323 -93.4049 129.625 -87.6316C125.446 -83.3776 116.252 -70.0838 120.355 -37.951C124.002 -9.61629 137.299 24.7196 158.802 61.2584L158.118 61.6382C136.615 25.0994 113.061 -3.15932 90.0379 -20.0993C63.9001 -39.2423 47.7919 -37.6471 42.0932 -36.0518C34.343 -33.9248 29.8601 -27.9996 29.9361 -19.9474C30.012 -14.0222 32.8994 1.93028 58.5053 21.757C81.148 39.2287 114.808 54.1177 155.838 64.6768L155.686 65.4364C114.656 54.8014 78.0327 51.459 49.7674 55.7889C17.7789 60.6507 7.52134 73.2607 4.55803 78.4263C0.606964 85.491 1.59473 92.7076 7.36937 98.4049C11.6244 102.583 24.9212 111.775 57.0617 107.673C85.403 104.026 119.747 90.7325 156.294 69.2346L156.674 69.9183C120.127 91.4162 91.8615 114.965 74.9175 137.982C55.77 164.114 57.3656 180.218 58.9612 185.916C61.0887 193.664 66.8634 198.07 74.8415 198.07C74.9175 198.07 74.9935 198.07 74.9935 198.07C80.9201 197.994 96.8763 195.107 116.708 169.507C134.184 146.87 149.076 113.218 159.638 72.1972L160.397 72.3492Z" fill="#E7E7E7" fill-opacity="0.3"/>
<path d="M171.72 227.696C168.452 227.696 165.185 226.633 161.994 224.582C156.979 221.239 144.898 209.92 142.239 177.332C140.263 152.947 144.214 122.789 153.864 89.4411C141.479 121.878 126.51 148.313 110.25 166.621C88.5193 191.081 72.1071 192.828 66.0286 192.449C57.5946 191.917 51.8199 186.903 50.1483 178.623C48.9326 172.698 48.4007 156.214 69.5997 131.297C85.48 112.61 109.566 94.1509 139.959 77.3628C108.275 91.4921 78.9455 99.6963 54.4793 101.064C51.8199 101.216 49.2365 101.292 46.8051 101.292C19.7555 101.292 8.58609 92.2518 4.93895 88.0737C-0.683727 81.7687 -1.2156 74.0963 3.49529 67.0316C6.8385 62.018 18.1598 49.9397 50.7562 47.2809C75.1464 45.3059 105.311 49.256 138.667 58.9035C106.223 46.5213 79.7813 31.5563 61.4696 15.3C37.0034 -6.42578 35.2558 -22.8341 35.6357 -28.9112C36.1676 -37.3432 41.1824 -43.1165 49.4645 -44.7877C55.3911 -46.0032 71.8792 -46.5349 96.8013 -25.3409C115.493 -9.46435 133.957 14.6163 150.749 45.002C136.616 13.3249 128.41 -15.9973 127.042 -40.4578C125.143 -73.1224 135.476 -85.9604 140.035 -89.9865C146.342 -95.6078 154.016 -96.1396 161.082 -91.4298C166.097 -88.0874 178.178 -76.7687 180.838 -44.18C182.813 -19.7955 178.862 10.3623 169.212 43.7106C181.597 11.2739 196.566 -15.1617 212.826 -33.4691C234.557 -57.9295 250.969 -59.6767 257.048 -59.2969C265.482 -58.7651 271.256 -53.7515 272.928 -45.4714C274.144 -39.5462 274.675 -23.062 253.476 1.85432C237.596 20.5415 213.51 39.0008 183.117 55.7889C214.802 41.6596 244.131 33.4554 268.597 32.0881C301.269 30.189 314.11 40.5201 318.137 45.078C323.76 51.383 324.292 59.0554 319.581 66.1201C316.238 71.1337 304.916 83.212 272.32 85.8708C247.93 87.8458 217.765 83.8957 184.409 74.2483C216.853 86.6304 243.295 101.595 261.607 117.852C286.073 139.578 287.82 155.986 287.44 162.063C286.909 170.495 281.894 176.268 273.612 177.939C267.685 179.155 251.197 179.687 226.275 158.493C207.583 142.616 189.12 118.535 172.328 88.1497C186.46 119.827 194.666 149.149 196.034 173.609C197.934 206.274 187.6 219.112 183.041 223.138C179.622 226.101 175.747 227.696 171.72 227.696ZM160.018 72.1972C146.57 112.382 140.719 148.693 142.998 177.18C145.658 209.465 157.435 220.555 162.374 223.822C169.136 228.304 176.431 227.772 182.509 222.379C186.992 218.428 197.098 205.818 195.198 173.458C193.527 144.895 182.661 109.8 163.742 71.8174L164.425 71.5135C183.345 109.42 204.848 139.274 226.655 157.809C251.349 178.775 267.533 178.243 273.384 177.104C281.286 175.509 286.149 169.963 286.605 161.911C286.985 155.986 285.237 139.881 260.999 118.308C239.648 99.3165 207.127 82.1485 166.933 68.7029L167.161 68.0192C207.355 81.4648 243.675 87.3141 272.168 85.0352C304.46 82.3764 315.554 70.602 318.821 65.6643C323.304 58.9035 322.772 51.6109 317.377 45.5338C313.426 41.0519 300.813 30.9486 268.445 32.8477C239.876 34.5189 204.772 45.3818 166.781 64.2969L166.477 63.6133C204.392 44.6982 234.253 23.2003 252.793 1.39854C273.764 -23.2898 273.232 -39.4702 272.092 -45.3195C270.496 -53.2198 264.95 -58.0815 256.896 -58.5373C250.969 -58.9171 234.861 -57.0939 213.282 -32.9373C194.286 -11.5914 177.114 20.9213 163.666 61.1064L162.982 60.8785C176.431 20.6935 182.281 -15.6175 180.002 -44.104C177.342 -76.3889 165.565 -87.4796 160.626 -90.7461C153.864 -95.228 146.57 -94.6962 140.491 -89.3028C136.008 -85.3526 125.902 -72.7426 127.802 -40.3818C129.474 -11.8192 140.339 23.2762 159.259 61.2584L158.575 61.5622C139.655 23.6561 118.152 -6.19789 96.3454 -24.7332C71.6512 -45.6993 55.4671 -45.1675 49.6164 -44.0281C41.7143 -42.4328 36.8514 -36.8874 36.3955 -28.8352C36.0156 -22.91 37.7632 -6.80561 62.0015 14.7682C83.3525 33.7593 115.873 50.9272 156.067 64.3729L155.839 65.0566C115.645 51.6109 79.3254 45.7616 50.8322 48.0406C18.5398 50.6993 7.44636 62.4738 4.17913 67.4115C-0.303816 74.1723 0.228057 81.4649 5.62279 87.542C9.57386 92.0239 22.1869 102.127 54.5553 100.228C83.1245 98.5568 118.228 87.6939 156.219 68.7788L156.523 69.4625C118.608 88.3776 88.7472 109.875 70.2076 131.677C49.2365 156.366 49.7684 172.546 50.9081 178.395C52.5038 186.296 58.0505 191.157 66.1046 191.613C72.0312 191.993 88.1394 190.246 109.718 166.013C128.714 144.667 145.886 112.154 159.335 71.9693L160.018 72.1972Z" fill="#E7E7E7" fill-opacity="0.3"/>
<path d="M161.538 228C157.967 228 154.32 226.709 150.976 224.126C146.19 220.48 134.944 208.325 134.564 175.661C134.26 151.2 140.339 121.422 152.268 88.7575C137.604 120.283 120.888 145.579 103.336 162.747C79.9332 185.612 63.4451 186.22 57.4425 185.46C49.0844 184.321 43.6137 178.927 42.55 170.571C41.7902 164.57 42.398 148.086 65.2686 124.689C82.3646 107.141 107.743 90.4287 139.275 75.7676C106.679 87.694 76.8179 93.7712 52.3517 93.4673C19.6034 93.0875 7.52223 81.8448 3.87509 77.059C-1.2917 70.3742 -1.2917 62.7018 3.87509 55.941C7.52223 51.1552 19.6794 39.9125 52.3517 39.5327C52.8836 39.5327 53.4914 39.5327 54.0233 39.5327C78.1856 39.5327 107.363 45.6098 139.199 57.2324C107.667 42.5713 82.3646 25.8591 65.1927 8.31138C42.322 -15.0856 41.7142 -31.5699 42.474 -37.571C43.6137 -45.9271 49.0085 -51.3965 57.3665 -52.46C63.3691 -53.2197 79.8572 -52.6119 103.26 -29.7467C120.812 -12.6548 137.528 12.7173 152.192 44.2425C140.263 11.6538 134.184 -18.1242 134.488 -42.6606C134.868 -75.4012 146.114 -87.4795 150.9 -91.1258C157.587 -96.2914 165.261 -96.2914 172.024 -91.1258C176.81 -87.4795 188.056 -75.3253 188.436 -42.6606C188.74 -18.2001 182.661 11.5778 170.732 44.2425C185.396 12.7173 202.112 -12.5788 219.664 -29.7467C243.067 -52.6119 259.555 -53.2197 265.558 -52.46C273.916 -51.3206 279.386 -45.9271 280.45 -37.571C281.21 -31.5699 280.602 -15.0856 257.731 8.31138C240.635 25.8591 215.257 42.5713 183.725 57.2324C216.321 45.306 246.106 39.2288 270.648 39.5327C303.397 39.9125 315.478 51.1552 319.125 55.941C324.292 62.6258 324.292 70.2982 319.125 77.059C315.478 81.8448 303.321 93.0875 270.648 93.4673C246.106 93.7712 216.397 87.694 183.725 75.7676C215.257 90.4287 240.559 107.141 257.731 124.689C280.602 148.086 281.21 164.57 280.45 170.571C279.31 178.927 273.916 184.397 265.558 185.46C259.555 186.22 243.067 185.612 219.664 162.747C202.112 145.655 185.396 120.283 170.732 88.7575C182.661 121.346 188.74 151.124 188.436 175.661C188.056 208.401 176.81 220.48 172.024 224.126C168.756 226.785 165.109 228 161.538 228ZM159.638 72.1214C143.378 111.319 135.02 147.098 135.324 175.661C135.704 208.021 146.721 219.948 151.432 223.594C157.815 228.532 165.185 228.532 171.568 223.594C176.279 219.948 187.296 208.097 187.676 175.661C188.056 147.098 179.622 111.243 163.362 72.1214L164.045 71.8175C180.306 111.015 199.681 142.236 220.12 162.215C243.295 184.852 259.479 185.46 265.406 184.7C273.384 183.637 278.626 178.471 279.69 170.419C280.45 164.494 279.842 148.314 257.199 125.144C237.216 104.71 205.988 85.2632 166.781 69.0828L167.085 68.3991C206.291 84.6555 242.079 93.0115 270.648 92.7077C303.017 92.3278 314.946 81.313 318.593 76.6032C323.532 70.2222 323.532 62.8537 318.593 56.4727C314.946 51.7629 303.093 40.7481 270.648 40.3683C242.079 39.9885 206.215 48.4205 167.085 64.6769L166.781 63.9932C205.988 47.7368 237.216 28.3659 257.199 7.93156C279.842 -15.2375 280.45 -31.4179 279.69 -37.3431C278.626 -45.3194 273.46 -50.5609 265.406 -51.6244C259.555 -52.3841 243.295 -51.7763 220.12 -29.139C199.681 -9.1604 180.23 22.0609 164.045 61.2585L163.362 60.9546C179.622 21.757 187.98 -14.0221 187.676 -42.5847C187.296 -74.9454 176.279 -86.8718 171.568 -90.5181C165.185 -95.4558 157.815 -95.4558 151.432 -90.5181C146.721 -86.8718 135.704 -75.0214 135.324 -42.5847C134.944 -14.0221 143.378 21.833 159.638 60.9546L158.955 61.2585C142.694 22.0609 123.319 -9.1604 102.88 -29.139C79.7053 -51.7763 63.5211 -52.3841 57.5944 -51.6244C49.6163 -50.5609 44.3736 -45.3953 43.3098 -37.3431C42.55 -31.4179 43.1578 -15.2375 65.8005 7.93156C85.7838 28.3659 117.012 47.8128 156.219 63.9932L155.915 64.6769C116.709 48.4205 80.921 40.0644 52.3517 40.3683C19.9833 40.7481 8.05411 51.7629 4.40696 56.4727C-0.531874 62.8537 -0.531874 70.2222 4.40696 76.6032C8.05411 81.313 19.9073 92.3278 52.3517 92.7077C80.921 93.0875 116.785 84.6555 155.915 68.3991L156.219 69.0828C117.012 85.3391 85.7838 104.71 65.8005 125.144C43.1578 148.314 42.55 164.494 43.3098 170.419C44.3736 178.395 49.5403 183.637 57.5944 184.7C63.5211 185.46 79.7053 184.852 102.88 162.215C123.319 142.236 142.77 111.015 158.955 71.8175L159.638 72.1214Z" fill="#E7E7E7" fill-opacity="0.3"/>
</svg>
