<svg width="1455" height="737" viewBox="0 0 1455 737" fill="none" xmlns="http://www.w3.org/2000/svg">
<rect width="1382" height="737" transform="translate(1382 737) rotate(-180)" fill="#131214"/>
<g style="mix-blend-mode:overlay" filter="url(#filter0_f_1625_12814)">
<ellipse cx="215.676" cy="525.377" rx="215.676" ry="525.377" transform="matrix(-7.24979e-08 1 1 1.0103e-07 146.172 152.669)" fill="#FFC2A4"/>
</g>
<g style="mix-blend-mode:overlay" filter="url(#filter1_f_1625_12814)">
<ellipse cx="215.676" cy="525.377" rx="215.676" ry="525.377" transform="matrix(-7.24979e-08 1 1 1.0103e-07 146.172 152.669)" fill="#FFC2A4"/>
</g>
<g style="mix-blend-mode:overlay" filter="url(#filter2_f_1625_12814)">
<ellipse cx="215.676" cy="525.377" rx="215.676" ry="525.377" transform="matrix(-7.24979e-08 1 1 1.0103e-07 146.172 152.669)" fill="#FFC2A4"/>
</g>
<g style="mix-blend-mode:overlay" filter="url(#filter3_f_1625_12814)">
<ellipse cx="128.714" cy="525.377" rx="128.714" ry="525.377" transform="matrix(-7.24979e-08 1 1 1.0103e-07 146.172 239.365)" fill="#FFC2A4"/>
</g>
<g style="mix-blend-mode:overlay" filter="url(#filter4_f_1625_12814)">
<ellipse cx="105.311" cy="525.377" rx="105.311" ry="525.377" transform="matrix(-7.24979e-08 1 1 1.0103e-07 146.172 262.768)" fill="#FFC2A4"/>
</g>
<g style="mix-blend-mode:overlay" filter="url(#filter5_f_1625_12814)">
<ellipse cx="37.7632" cy="525.377" rx="37.7632" ry="525.377" transform="matrix(-7.24979e-08 1 1 1.0103e-07 268.168 330.316)" fill="#FFC2A4"/>
</g>
<g style="mix-blend-mode:overlay" filter="url(#filter6_f_1625_12814)">
<ellipse cx="167.009" cy="406.331" rx="167.009" ry="406.331" transform="matrix(-7.24979e-08 1 1 1.0103e-07 368.521 201.07)" fill="#FFC2A4"/>
</g>
<g style="mix-blend-mode:overlay" filter="url(#filter7_f_1625_12814)">
<ellipse cx="167.009" cy="406.331" rx="167.009" ry="406.331" transform="matrix(-7.24979e-08 1 1 1.0103e-07 368.521 201.07)" fill="#FFC2A4"/>
</g>
<g style="mix-blend-mode:overlay" filter="url(#filter8_f_1625_12814)">
<ellipse cx="167.009" cy="406.331" rx="167.009" ry="406.331" transform="matrix(-7.24979e-08 1 1 1.0103e-07 368.521 201.07)" fill="#FFC2A4"/>
</g>
<g style="mix-blend-mode:overlay" filter="url(#filter9_f_1625_12814)">
<ellipse cx="167.009" cy="406.331" rx="167.009" ry="406.331" transform="matrix(-7.24979e-08 1 1 1.0103e-07 368.521 201.07)" fill="#FFC2A4"/>
</g>
<g style="mix-blend-mode:overlay" filter="url(#filter10_f_1625_12814)">
<ellipse cx="167.009" cy="390.589" rx="167.009" ry="390.589" transform="matrix(-7.24979e-08 1 1 1.0103e-07 400.004 201.268)" fill="#FFC2A4"/>
</g>
<defs>
<filter id="filter0_f_1625_12814" x="10.7622" y="17.2598" width="1321.57" height="702.171" filterUnits="userSpaceOnUse" color-interpolation-filters="sRGB">
<feFlood flood-opacity="0" result="BackgroundImageFix"/>
<feBlend mode="normal" in="SourceGraphic" in2="BackgroundImageFix" result="shape"/>
<feGaussianBlur stdDeviation="67.7048" result="effect1_foregroundBlur_1625_12814"/>
</filter>
<filter id="filter1_f_1625_12814" x="10.7622" y="17.2598" width="1321.57" height="702.171" filterUnits="userSpaceOnUse" color-interpolation-filters="sRGB">
<feFlood flood-opacity="0" result="BackgroundImageFix"/>
<feBlend mode="normal" in="SourceGraphic" in2="BackgroundImageFix" result="shape"/>
<feGaussianBlur stdDeviation="67.7048" result="effect1_foregroundBlur_1625_12814"/>
</filter>
<filter id="filter2_f_1625_12814" x="10.7622" y="17.2598" width="1321.57" height="702.171" filterUnits="userSpaceOnUse" color-interpolation-filters="sRGB">
<feFlood flood-opacity="0" result="BackgroundImageFix"/>
<feBlend mode="normal" in="SourceGraphic" in2="BackgroundImageFix" result="shape"/>
<feGaussianBlur stdDeviation="67.7048" result="effect1_foregroundBlur_1625_12814"/>
</filter>
<filter id="filter3_f_1625_12814" x="10.7622" y="103.956" width="1321.57" height="528.248" filterUnits="userSpaceOnUse" color-interpolation-filters="sRGB">
<feFlood flood-opacity="0" result="BackgroundImageFix"/>
<feBlend mode="normal" in="SourceGraphic" in2="BackgroundImageFix" result="shape"/>
<feGaussianBlur stdDeviation="67.7048" result="effect1_foregroundBlur_1625_12814"/>
</filter>
<filter id="filter4_f_1625_12814" x="10.7622" y="127.358" width="1321.57" height="481.442" filterUnits="userSpaceOnUse" color-interpolation-filters="sRGB">
<feFlood flood-opacity="0" result="BackgroundImageFix"/>
<feBlend mode="normal" in="SourceGraphic" in2="BackgroundImageFix" result="shape"/>
<feGaussianBlur stdDeviation="67.7048" result="effect1_foregroundBlur_1625_12814"/>
</filter>
<filter id="filter5_f_1625_12814" x="132.758" y="194.906" width="1321.57" height="346.346" filterUnits="userSpaceOnUse" color-interpolation-filters="sRGB">
<feFlood flood-opacity="0" result="BackgroundImageFix"/>
<feBlend mode="normal" in="SourceGraphic" in2="BackgroundImageFix" result="shape"/>
<feGaussianBlur stdDeviation="67.7048" result="effect1_foregroundBlur_1625_12814"/>
</filter>
<filter id="filter6_f_1625_12814" x="233.112" y="65.6606" width="1083.48" height="604.837" filterUnits="userSpaceOnUse" color-interpolation-filters="sRGB">
<feFlood flood-opacity="0" result="BackgroundImageFix"/>
<feBlend mode="normal" in="SourceGraphic" in2="BackgroundImageFix" result="shape"/>
<feGaussianBlur stdDeviation="67.7048" result="effect1_foregroundBlur_1625_12814"/>
</filter>
<filter id="filter7_f_1625_12814" x="233.112" y="65.6606" width="1083.48" height="604.837" filterUnits="userSpaceOnUse" color-interpolation-filters="sRGB">
<feFlood flood-opacity="0" result="BackgroundImageFix"/>
<feBlend mode="normal" in="SourceGraphic" in2="BackgroundImageFix" result="shape"/>
<feGaussianBlur stdDeviation="67.7048" result="effect1_foregroundBlur_1625_12814"/>
</filter>
<filter id="filter8_f_1625_12814" x="233.112" y="65.6606" width="1083.48" height="604.837" filterUnits="userSpaceOnUse" color-interpolation-filters="sRGB">
<feFlood flood-opacity="0" result="BackgroundImageFix"/>
<feBlend mode="normal" in="SourceGraphic" in2="BackgroundImageFix" result="shape"/>
<feGaussianBlur stdDeviation="67.7048" result="effect1_foregroundBlur_1625_12814"/>
</filter>
<filter id="filter9_f_1625_12814" x="233.112" y="65.6606" width="1083.48" height="604.837" filterUnits="userSpaceOnUse" color-interpolation-filters="sRGB">
<feFlood flood-opacity="0" result="BackgroundImageFix"/>
<feBlend mode="normal" in="SourceGraphic" in2="BackgroundImageFix" result="shape"/>
<feGaussianBlur stdDeviation="67.7048" result="effect1_foregroundBlur_1625_12814"/>
</filter>
<filter id="filter10_f_1625_12814" x="264.594" y="65.8579" width="1052" height="604.837" filterUnits="userSpaceOnUse" color-interpolation-filters="sRGB">
<feFlood flood-opacity="0" result="BackgroundImageFix"/>
<feBlend mode="normal" in="SourceGraphic" in2="BackgroundImageFix" result="shape"/>
<feGaussianBlur stdDeviation="67.7048" result="effect1_foregroundBlur_1625_12814"/>
</filter>
</defs>
</svg>
